<?xml version="1.0" encoding="utf-8"?>
<!-- Generator: Adobe Illustrator 24.1.0, SVG Export Plug-In . SVG Version: 6.00 Build 0)  -->
<svg version="1.1" id="圖層_1" xmlns="http://www.w3.org/2000/svg" xmlns:xlink="http://www.w3.org/1999/xlink" x="0px" y="0px"
	 viewBox="0 0 595.28 841.89" style="enable-background:new 0 0 595.28 841.89;" xml:space="preserve">
<style type="text/css">
	.st0{fill:#DCDDDD;}
	.st1{fill:none;stroke:#000000;stroke-width:4;stroke-miterlimit:10;}
	.st2{fill:#E1D7CE;}
	.st3{fill:#9FA0A0;}
	.st4{fill:#A54746;}
	.st5{fill:#727171;}
</style>
<g>
	<path class="st0" d="M417.51,493.98c0,0.27,0.51,0.56,0.5,0.83c-0.01,0.27-0.53,0.52-0.56,0.78c-0.02,0.27-0.25,0.51-0.28,0.78
		c-0.04,0.27,0.28,0.59,0.24,0.86c-0.05,0.27-0.56,0.43-0.62,0.69c-0.06,0.26,0.34,0.64,0.27,0.9c-0.07,0.26-0.7,0.35-0.78,0.6
		c-0.08,0.26,0.54,0.77,0.44,1.02c-0.1,0.25-0.82,0.25-0.92,0.5c-0.11,0.25-0.32,0.43-0.43,0.67c-0.12,0.24,0.14,0.67,0.01,0.91
		c-0.13,0.24-0.41,0.38-0.55,0.61c-0.14,0.23-0.41,0.37-0.56,0.59c-0.15,0.22-0.1,0.58-0.26,0.8c-0.16,0.22-0.15,0.57-0.32,0.78
		c-0.17,0.21-0.29,0.47-0.47,0.68c-0.18,0.2-0.74,0.05-0.93,0.24c-0.19,0.19-0.43,0.31-0.63,0.5c-0.2,0.18-0.48,0.24-0.69,0.42
		c-0.2,0.17,0.1,0.96-0.12,1.13c-0.21,0.17-0.41,0.38-0.63,0.54c-0.22,0.16-0.9-0.37-1.13-0.22c-0.23,0.15-0.04,0.96-0.27,1.1
		c-0.23,0.14-0.45,0.34-0.68,0.47c-0.24,0.13-0.65-0.08-0.9,0.03c-0.24,0.11-0.6-0.04-0.85,0.07c-0.25,0.1-0.3,0.72-0.55,0.81
		c-0.25,0.09-0.51,0.23-0.77,0.31c-0.26,0.08-0.74-0.63-1-0.56c-0.26,0.07-0.35,0.82-0.61,0.88c-0.26,0.06-0.6-0.22-0.86-0.17
		c-0.26,0.05-0.56-0.14-0.83-0.1c-0.27,0.03-0.52,0.02-0.79,0.04c-0.27,0.02-0.52,0.15-0.79,0.16c-0.27,0.01-0.53,0.08-0.8,0.08
		s-0.54,0.2-0.81,0.19c-0.27-0.01-0.57,0.3-0.84,0.27c-0.27-0.02-0.47-0.68-0.74-0.72c-0.27-0.04-0.64,0.61-0.91,0.57
		c-0.27-0.05-0.43-0.62-0.69-0.68c-0.26-0.06-0.56,0.03-0.82-0.04c-0.26-0.07-0.49-0.24-0.75-0.32c-0.26-0.08-0.62,0.13-0.87,0.04
		c-0.25-0.09-0.5-0.23-0.75-0.33c-0.25-0.1-0.25-0.76-0.49-0.88c-0.24-0.12-0.42-0.32-0.66-0.44c-0.24-0.13-0.54-0.1-0.77-0.23
		c-0.23-0.14-0.79,0.26-1.02,0.11c-0.23-0.15-0.42-0.37-0.64-0.52c-0.22-0.16-0.22-0.61-0.44-0.77c-0.21-0.17-0.8,0.12-1.01-0.06
		c-0.2-0.18-0.21-0.59-0.41-0.78c-0.2-0.18,0.06-0.82-0.13-1.01c-0.19-0.19-0.94,0.14-1.12-0.06c-0.18-0.2,0.11-0.8-0.06-1.01
		c-0.17-0.21-0.6-0.21-0.76-0.43c-0.16-0.22-0.27-0.47-0.42-0.7c-0.15-0.22-0.27-0.47-0.41-0.7c-0.14-0.23-0.08-0.57-0.21-0.81
		c-0.13-0.24-0.83-0.18-0.95-0.42c-0.12-0.24-0.23-0.51-0.34-0.75c-0.11-0.25,0.49-0.78,0.4-1.04c-0.1-0.25-0.95-0.23-1.03-0.49
		c-0.08-0.25,0.61-0.75,0.53-1.01c-0.07-0.26-0.45-0.43-0.52-0.69c-0.06-0.26-0.49-0.45-0.54-0.72c-0.05-0.26,0.64-0.65,0.61-0.91
		c-0.04-0.27-0.7-0.46-0.72-0.73c-0.02-0.27-0.07-0.54-0.08-0.82c-0.01-0.27,0.12-0.55,0.12-0.82c0-0.27,0.39-0.53,0.4-0.8
		c0.01-0.27-0.71-0.59-0.69-0.86c0.02-0.27,0.37-0.52,0.41-0.78c0.04-0.27,0.53-0.46,0.58-0.72c0.05-0.27-0.21-0.59-0.15-0.85
		c0.06-0.26-0.04-0.57,0.03-0.83c0.07-0.26,0.15-0.53,0.24-0.78c0.08-0.26,0.56-0.37,0.65-0.62c0.1-0.25,0.31-0.44,0.42-0.69
		c0.11-0.25-0.15-0.66-0.03-0.9c0.12-0.24,0.67-0.25,0.8-0.49c0.13-0.24,0.21-0.48,0.35-0.71c0.14-0.23,0.32-0.41,0.47-0.64
		c0.15-0.22,0.15-0.54,0.31-0.75c0.16-0.22-0.01-0.69,0.16-0.9c0.17-0.21,0.13-0.62,0.31-0.82c0.18-0.2,1.02,0.21,1.2,0.02
		c0.19-0.19-0.24-1.01-0.04-1.2c0.2-0.18,0.88,0.17,1.09,0c0.2-0.17,0.52-0.19,0.73-0.36c0.21-0.17,0.28-0.51,0.49-0.66
		c0.22-0.16,0.36-0.42,0.59-0.57c0.23-0.15,0.18-0.75,0.41-0.89c0.23-0.14,0.58-0.1,0.82-0.23c0.24-0.13,0.74,0.27,0.98,0.16
		c0.24-0.11,0.44-0.31,0.69-0.42c0.25-0.1,0.56,0,0.82-0.1c0.25-0.09,0.27-0.87,0.53-0.95c0.26-0.08,0.74,0.61,1,0.54
		c0.26-0.07,0.34-0.87,0.6-0.93c0.26-0.06,0.62,0.36,0.89,0.31c0.26-0.05,0.46-0.53,0.73-0.57c0.27-0.03,0.54-0.16,0.81-0.18
		c0.27-0.02,0.57,0.34,0.84,0.33c0.27-0.01,0.54-0.31,0.81-0.31s0.56-0.07,0.82-0.06c0.27,0.01,0.48,0.85,0.75,0.87
		c0.27,0.02,0.54-0.11,0.8-0.08c0.27,0.04,0.57-0.18,0.83-0.13c0.27,0.05,0.56-0.04,0.82,0.01c0.26,0.06,0.46,0.39,0.72,0.46
		c0.26,0.07,0.67-0.36,0.93-0.28c0.26,0.08,0.48,0.3,0.73,0.4c0.25,0.09,0.62-0.07,0.87,0.04c0.25,0.1,0.37,0.53,0.61,0.65
		c0.24,0.12,0.29,0.63,0.52,0.75c0.24,0.13,0.74-0.23,0.98-0.09c0.23,0.14,0.42,0.36,0.65,0.51c0.23,0.15,0.34,0.47,0.56,0.62
		c0.22,0.16,0.39,0.37,0.6,0.54c0.21,0.17,0.72-0.02,0.92,0.16c0.2,0.18-0.12,0.94,0.07,1.13c0.2,0.18,0.85-0.1,1.04,0.09
		c0.19,0.19-0.07,0.8,0.11,1c0.18,0.2,0.25,0.47,0.42,0.68c0.17,0.21,1.04-0.13,1.2,0.09c0.16,0.22,0.18,0.55,0.33,0.78
		c0.15,0.22,0.14,0.56,0.28,0.79c0.14,0.23,0.61,0.28,0.74,0.52c0.13,0.24,0.22,0.51,0.34,0.75c0.12,0.24-0.15,0.67-0.04,0.92
		c0.11,0.25,0.26,0.47,0.36,0.72c0.1,0.25-0.21,0.64-0.13,0.89c0.08,0.25,0.13,0.5,0.2,0.76c0.07,0.26,1.03,0.29,1.09,0.55
		c0.06,0.26-0.39,0.64-0.34,0.91c0.05,0.26,0.31,0.5,0.35,0.76c0.04,0.27,0.23,0.53,0.25,0.8c0.02,0.27-0.4,0.57-0.39,0.84
		C417.41,493.45,417.51,493.71,417.51,493.98z"/>
	<path class="st1" d="M417.51,493.98c0,0.27,0.51,0.56,0.5,0.83c-0.01,0.27-0.53,0.52-0.56,0.78c-0.02,0.27-0.25,0.51-0.28,0.78
		c-0.04,0.27,0.28,0.59,0.24,0.86c-0.05,0.27-0.56,0.43-0.62,0.69c-0.06,0.26,0.34,0.64,0.27,0.9c-0.07,0.26-0.7,0.35-0.78,0.6
		c-0.08,0.26,0.54,0.77,0.44,1.02c-0.1,0.25-0.82,0.25-0.92,0.5c-0.11,0.25-0.32,0.43-0.43,0.67c-0.12,0.24,0.14,0.67,0.01,0.91
		c-0.13,0.24-0.41,0.38-0.55,0.61c-0.14,0.23-0.41,0.37-0.56,0.59c-0.15,0.22-0.1,0.58-0.26,0.8c-0.16,0.22-0.15,0.57-0.32,0.78
		c-0.17,0.21-0.29,0.47-0.47,0.68c-0.18,0.2-0.74,0.05-0.93,0.24c-0.19,0.19-0.43,0.31-0.63,0.5c-0.2,0.18-0.48,0.24-0.69,0.42
		c-0.2,0.17,0.1,0.96-0.12,1.13c-0.21,0.17-0.41,0.38-0.63,0.54c-0.22,0.16-0.9-0.37-1.13-0.22c-0.23,0.15-0.04,0.96-0.27,1.1
		c-0.23,0.14-0.45,0.34-0.68,0.47c-0.24,0.13-0.65-0.08-0.9,0.03c-0.24,0.11-0.6-0.04-0.85,0.07c-0.25,0.1-0.3,0.72-0.55,0.81
		c-0.25,0.09-0.51,0.23-0.77,0.31c-0.26,0.08-0.74-0.63-1-0.56c-0.26,0.07-0.35,0.82-0.61,0.88c-0.26,0.06-0.6-0.22-0.86-0.17
		c-0.26,0.05-0.56-0.14-0.83-0.1c-0.27,0.03-0.52,0.02-0.79,0.04c-0.27,0.02-0.52,0.15-0.79,0.16c-0.27,0.01-0.53,0.08-0.8,0.08
		s-0.54,0.2-0.81,0.19c-0.27-0.01-0.57,0.3-0.84,0.27c-0.27-0.02-0.47-0.68-0.74-0.72c-0.27-0.04-0.64,0.61-0.91,0.57
		c-0.27-0.05-0.43-0.62-0.69-0.68c-0.26-0.06-0.56,0.03-0.82-0.04c-0.26-0.07-0.49-0.24-0.75-0.32c-0.26-0.08-0.62,0.13-0.87,0.04
		c-0.25-0.09-0.5-0.23-0.75-0.33c-0.25-0.1-0.25-0.76-0.49-0.88c-0.24-0.12-0.42-0.32-0.66-0.44c-0.24-0.13-0.54-0.1-0.77-0.23
		c-0.23-0.14-0.79,0.26-1.02,0.11c-0.23-0.15-0.42-0.37-0.64-0.52c-0.22-0.16-0.22-0.61-0.44-0.77c-0.21-0.17-0.8,0.12-1.01-0.06
		c-0.2-0.18-0.21-0.59-0.41-0.78c-0.2-0.18,0.06-0.82-0.13-1.01c-0.19-0.19-0.94,0.14-1.12-0.06c-0.18-0.2,0.11-0.8-0.06-1.01
		c-0.17-0.21-0.6-0.21-0.76-0.43c-0.16-0.22-0.27-0.47-0.42-0.7c-0.15-0.22-0.27-0.47-0.41-0.7c-0.14-0.23-0.08-0.57-0.21-0.81
		c-0.13-0.24-0.83-0.18-0.95-0.42c-0.12-0.24-0.23-0.51-0.34-0.75c-0.11-0.25,0.49-0.78,0.4-1.04c-0.1-0.25-0.95-0.23-1.03-0.49
		c-0.08-0.25,0.61-0.75,0.53-1.01c-0.07-0.26-0.45-0.43-0.52-0.69c-0.06-0.26-0.49-0.45-0.54-0.72c-0.05-0.26,0.64-0.65,0.61-0.91
		c-0.04-0.27-0.7-0.46-0.72-0.73c-0.02-0.27-0.07-0.54-0.08-0.82c-0.01-0.27,0.12-0.55,0.12-0.82c0-0.27,0.39-0.53,0.4-0.8
		c0.01-0.27-0.71-0.59-0.69-0.86c0.02-0.27,0.37-0.52,0.41-0.78c0.04-0.27,0.53-0.46,0.58-0.72c0.05-0.27-0.21-0.59-0.15-0.85
		c0.06-0.26-0.04-0.57,0.03-0.83c0.07-0.26,0.15-0.53,0.24-0.78c0.08-0.26,0.56-0.37,0.65-0.62c0.1-0.25,0.31-0.44,0.42-0.69
		c0.11-0.25-0.15-0.66-0.03-0.9c0.12-0.24,0.67-0.25,0.8-0.49c0.13-0.24,0.21-0.48,0.35-0.71c0.14-0.23,0.32-0.41,0.47-0.64
		c0.15-0.22,0.15-0.54,0.31-0.75c0.16-0.22-0.01-0.69,0.16-0.9c0.17-0.21,0.13-0.62,0.31-0.82c0.18-0.2,1.02,0.21,1.2,0.02
		c0.19-0.19-0.24-1.01-0.04-1.2c0.2-0.18,0.88,0.17,1.09,0c0.2-0.17,0.52-0.19,0.73-0.36c0.21-0.17,0.28-0.51,0.49-0.66
		c0.22-0.16,0.36-0.42,0.59-0.57c0.23-0.15,0.18-0.75,0.41-0.89c0.23-0.14,0.58-0.1,0.82-0.23c0.24-0.13,0.74,0.27,0.98,0.16
		c0.24-0.11,0.44-0.31,0.69-0.42c0.25-0.1,0.56,0,0.82-0.1c0.25-0.09,0.27-0.87,0.53-0.95c0.26-0.08,0.74,0.61,1,0.54
		c0.26-0.07,0.34-0.87,0.6-0.93c0.26-0.06,0.62,0.36,0.89,0.31c0.26-0.05,0.46-0.53,0.73-0.57c0.27-0.03,0.54-0.16,0.81-0.18
		c0.27-0.02,0.57,0.34,0.84,0.33c0.27-0.01,0.54-0.31,0.81-0.31s0.56-0.07,0.82-0.06c0.27,0.01,0.48,0.85,0.75,0.87
		c0.27,0.02,0.54-0.11,0.8-0.08c0.27,0.04,0.57-0.18,0.83-0.13c0.27,0.05,0.56-0.04,0.82,0.01c0.26,0.06,0.46,0.39,0.72,0.46
		c0.26,0.07,0.67-0.36,0.93-0.28c0.26,0.08,0.48,0.3,0.73,0.4c0.25,0.09,0.62-0.07,0.87,0.04c0.25,0.1,0.37,0.53,0.61,0.65
		c0.24,0.12,0.29,0.63,0.52,0.75c0.24,0.13,0.74-0.23,0.98-0.09c0.23,0.14,0.42,0.36,0.65,0.51c0.23,0.15,0.34,0.47,0.56,0.62
		c0.22,0.16,0.39,0.37,0.6,0.54c0.21,0.17,0.72-0.02,0.92,0.16c0.2,0.18-0.12,0.94,0.07,1.13c0.2,0.18,0.85-0.1,1.04,0.09
		c0.19,0.19-0.07,0.8,0.11,1c0.18,0.2,0.25,0.47,0.42,0.68c0.17,0.21,1.04-0.13,1.2,0.09c0.16,0.22,0.18,0.55,0.33,0.78
		c0.15,0.22,0.14,0.56,0.28,0.79c0.14,0.23,0.61,0.28,0.74,0.52c0.13,0.24,0.22,0.51,0.34,0.75c0.12,0.24-0.15,0.67-0.04,0.92
		c0.11,0.25,0.26,0.47,0.36,0.72c0.1,0.25-0.21,0.64-0.13,0.89c0.08,0.25,0.13,0.5,0.2,0.76c0.07,0.26,1.03,0.29,1.09,0.55
		c0.06,0.26-0.39,0.64-0.34,0.91c0.05,0.26,0.31,0.5,0.35,0.76c0.04,0.27,0.23,0.53,0.25,0.8c0.02,0.27-0.4,0.57-0.39,0.84
		C417.41,493.45,417.51,493.71,417.51,493.98z"/>
</g>
<path d="M416.37,271.17c-0.64-2.43-1.39-4.86-3.27-6.69c-0.61-0.6-1.34-1.08-1.97-1.67c-1.58-1.45-3.04-3.03-4.71-4.36
	c-2.32-1.85-4.82-3.47-7.18-5.27c-1.46-1.11-2.78-2.42-4.22-3.57c-2.09-1.65-4.2-3.28-6.37-4.84c-1.74-1.25-4.18-1.36-5.51-3.32
	c-0.12-0.17-0.58-0.14-0.88-0.14c-2.18-0.01-3.64-1.66-5.48-2.43c-0.27-0.12-0.33-0.74-0.44-1c-1.12-0.14-2.19-0.25-3.25-0.44
	c-0.33-0.07-4.76-0.88-6.14-1.46c-2.07-0.89-4.2-1.28-6.38-1.34c-1.7-0.05-3.19-1.05-4.94-0.78c-0.99,0.15-2.04-0.12-3.03,0.03
	c-2.17,0.34-4.31,0.93-6.49,1.22c-4.39,0.57-8.18,2.68-11.92,4.78c-3.13,1.75-6.12,3.82-8.94,6.04c-2.58,2.04-5.15,4.24-7.18,6.8
	c-2.5,3.14-5.71,4.88-9.3,6.2c-0.32,0.11-0.8,0.18-1.04,0.03c-1.12-0.73-2.22-0.41-3.35-0.14c-0.23,0.06-0.5,0.07-0.71,0.01
	c-3.19-0.99-6.34-2.11-9.56-2.96c-1.84-0.48-3.8-0.53-5.7-0.75c-2.97-0.35-5.94-0.66-8.9-1.03c-0.65-0.08-1.28-0.35-1.9-0.53
	c-0.47,0.19-0.96,0.54-1.47,0.56c-2.58,0.1-5.16,0.02-7.73,0.18c-1.74,0.12-3.46,0.47-5.17,0.82c-4.68,0.96-9.34,1.96-14.01,2.96
	c-0.33,0.08-0.65,0.29-0.96,0.46c-1.63,0.95-3.25,1.91-4.87,2.86c-0.78,0.45-1.46,0.29-2.28-0.1c-1.88-0.89-2.99-2.56-4.41-3.93
	c-0.64-0.61-1.42-1.09-2.07-1.7c-0.88-0.84-1.6-1.89-2.57-2.59c-4.34-3.12-8.73-6.23-14.4-6.3c-2.05-0.03-4.11,0.17-6.17,0.29
	c-0.71,0.04-1.42,0.25-2.12,0.22c-3.89-0.14-7.62,0.48-11.15,2.21c-0.59,0.29-1.24,0.59-1.87,0.6c-2.37,0.04-4.26,1.28-6.22,2.34
	c-2.92,1.56-5.77,3.26-8.75,4.68c-2.77,1.31-5.07,3.19-7.14,5.35c-1.6,1.69-3.02,3.56-4.45,5.41c-2.99,3.88-5.5,8.07-7.6,12.49
	c-1.93,4.05-3.91,8.08-5.7,12.19c-1.57,3.59-3.1,7.21-4.29,10.94c-0.87,2.69-1.27,5.54-1.68,8.36c-0.66,4.57,2.49,9.29,7.26,9.46
	c1.55,0.06,3.1,0.01,4.67,0.01c-0.21,3.05-0.45,6.08-0.6,9.12c-0.13,2.44-0.2,4.89-0.22,7.33c-0.01,1.39,0.12,2.77,1.46,3.68
	c0.23,0.15,0.26,0.61,0.4,0.99c-0.88-0.17-1.15,0.06-0.84,0.85c1.11,2.82,2.38,5.56,5,7.29c1.65,1.09,2.12,2.53,2.2,4.36
	c0.04,1.15,0.19,2.4,0.7,3.4c2.23,4.42,5.24,8.27,9.29,11.15c2.02,1.45,4.18,2.9,6.98,2.56c1.83-0.22,3.36,0.97,3.78,2.42
	c0.64,2.2,1.28,4.36,2.39,6.36c0.36,0.65,0.69,1.32,1.13,1.92c1.03,1.42,2.11,2.81,3.18,4.2c1.15,1.48,2.14,3.15,3.52,4.37
	c1.92,1.7,3.52,3.77,5.94,4.96c1.43,0.71,2.02,2.38,2.49,3.92c-1.84,0.42-3.55,0.74-5.21,1.2c-1.4,0.39-2.73,1.15-4.14,1.38
	c-2.1,0.34-4.05,0.97-5.9,1.99c-1.07,0.59-2.19,1.1-3.31,1.6c-2.63,1.18-5.27,2.33-7.03,4.81c-0.34,0.49-0.82,0.91-1.29,1.29
	c-0.94,0.78-1.98,1.44-2.86,2.28c-0.84,0.81-1.67,1.69-2.23,2.69c-0.78,1.38-1.31,2.9-1.95,4.36c-1.04,2.34-2.06,4.69-3.13,7.02
	c-1.21,2.63-1.48,5.48-2.02,8.26c-0.51,2.65-1.08,5.31-1.28,8c-0.26,3.59-0.28,7.2-0.23,10.81c0.03,2.63,0.21,5.28,0.54,7.9
	c0.66,5.19,3.05,9.79,5.26,14.42c0.87,1.82,1.94,3.58,3.11,5.23c1.18,1.64,2.17,3.43,3.86,4.73c1.23,0.95,2.2,2.25,3.28,3.41
	c0.29,0.32,0.49,0.96,0.79,1c1.78,0.24,2.59,1.77,3.82,2.73c1.2,0.93,2.19,2.14,3.43,3.01c2.33,1.63,4.77,3.08,7.14,4.64
	c0.6,0.39,1.13,0.91,1.88,1.52c-0.75,0.08-1.2,0.17-1.65,0.17c-3.57-0.01-7.87,3.62-8.23,8.14c-0.11,1.32-0.31,2.63-0.39,3.94
	c-0.17,2.55-0.04,5.11,0.92,7.47c0.69,1.72,1.71,3.36,2.83,4.85c2.31,3.07,4.39,6.37,7.67,8.61c1.38,0.94,2.63,2.09,4.07,2.94
	c5.15,3.05,10.76,5.1,16.38,7.1c1.42,0.51,2.95,0.8,4.45,0.93c4.2,0.37,8.34,1.22,12.56,1.52c2.6,0.18,5.13,0.17,7.71,0.02
	c1.66-0.09,3.39-0.17,4.99,0.19c1.84,0.43,3.55,1.41,5.35,2.06c5.69,2.05,11.02,5.1,17.03,6.22c2.63,0.49,5.32,0.8,8,0.88
	c4.81,0.15,9.62,0.07,14.43,0.1c1.21,0.01,2.42,0.18,3.61,0.13c2.6-0.13,5.18-0.32,7.77-0.54c1.71-0.14,3.42-0.36,5.12-0.56
	c0.71-0.08,1.41-0.19,2.11-0.25c4.51-0.37,9.04-0.55,13.52-1.15c5.48-0.73,10.91-1.92,16.38-2.71c2.91-0.42,5.55-1.57,8.28-2.47
	c1.27-0.42,2.42-1.34,3.7-1.57c4.97-0.91,8.96-4.02,13.5-5.87c1.98-0.81,3.75-2.21,5.53-3.47c2.47-1.74,5.53-2.81,6.95-5.85
	c0.18-0.39,0.65-0.64,0.93-1c0.77-1.05,1.62-2.06,2.25-3.19c1.01-1.84,1.72-3.85,2.85-5.6c0.89-1.36,1.92-2.56,1.97-4.3
	c0.01-0.29,0.6-0.56,0.93-0.83c0.48-0.41,0.98-0.81,1.42-1.18c-0.19-0.55-0.34-0.97-0.4-1.12c1.14-1.38,3.8-8.73,4.2-8.99
	c0.65-0.4,1.73-4,1.81-4.21c0.54-1.47,0.75-3.2,1.68-4.35c0.92-1.15,1.1-2.16,0.95-3.45c-0.03-0.27,1.59-4.1,1.82-5.91
	c0.16-1.22,0.77-4.57,1.01-5.62c0.24-1.04,0.22-4.29,0.77-4.86l0.02,0.02c-0.32-0.65-0.67-17.76-0.56-17.87
	c-0.15-0.47,0.43-7.8,0.18-9.07c-0.47,0-4.68-20.99-4.49-21.19c-0.32-0.94-0.61-1.66-0.8-2.4c-0.26-1-0.32-2.07-0.69-3.02
	c-0.74-1.86-1.73-3.61-2.44-5.48c-0.86-2.29-2.83-6.18-3.13-6.78c-1.04-2.08-2.1-4.13-3.06-6.25c-0.85-1.86-2.38-3.4-3.3-5.24
	c-0.73-1.47-3.03-5.18-3.38-5.66c-0.5-0.68-0.75-1.55-1.26-2.21c-1.33-1.73-2.79-3.35-4.12-5.08c-0.63-0.83-3.57-3.96-4.09-4.46
	c-1.15-1.12-2.23-2.33-3.32-3.51c-0.27-0.29-0.48-0.64-0.62-0.84c1.42-2.63,2.9-5.07,4.07-7.65c0.87-1.92,1.37-4.02,1.99-6.06
	c0.63-2.09,2.08-3.79,2.19-6.21c0.13-2.6,1.31-5.12,1.74-7.73c0.24-1.47,1.03-1.76,2.2-2.03c1.18-0.26,2.37-0.61,3.42-1.18
	c1.5-0.8,1.76-3.05,3.75-3.39c-0.36-1.08,0.75-0.97,1-1.51c0.06-0.52,0.27-0.96,0.52-1.37c0.15-0.23,0.54-0.42,0.53-0.61
	c-0.04-0.85,0.53-0.68,1.02-0.74c0.69-0.07,1.59,0.02,2.03-0.37c1.61-1.43,3.2-2.95,3.3-5.35c0.01-0.22,0.14-0.47,0.29-0.63
	c1.64-1.79,1.18-4.28,2.14-6.33c0.47-1,0.24-2.33,0.32-3.51c0.75-0.2,1.56-0.66,2.29-0.55c1.46,0.24,2.53-0.35,3.36-1.32
	c1.21-1.42,2.41-2.9,3.34-4.52c1.11-1.92,2.04-3.96,2.11-6.29c0.06-1.93,0.35-3.85,0.5-5.77c0.27-3.49,0.62-6.98,0.73-10.48
	c0.07-1.84-0.18-3.67-0.68-5.5c-0.46-1.68-0.27-3.53-0.49-5.3c-0.19-1.6-0.49-3.19-0.84-4.76c-0.31-1.47-0.75-2.92-1.15-4.44
	c0.85-0.46,1.61-0.87,2.37-1.28C415.21,275.9,416.84,272.94,416.37,271.17z M180.14,422.49c0.87-1.21,1.63-2.49,2.52-3.67
	c0.74-0.99,1.58-1.91,2.4-2.84c1.03-1.16,2.09-2.29,3.14-3.44c0.14-0.14,0.29-0.29,0.46-0.38c2.23-1.15,4.45-2.32,6.71-3.42
	c1.42-0.69,2.88-1.31,4.34-1.89c0.88-0.35,1.61-0.35,2.44,0.5c0.88,0.89,2.26,1.28,3.28,2.05c0.96,0.73,1.85,1.61,2.57,2.57
	c0.25,0.34,0.09,1.22-0.17,1.68c-1.83,3.17-3.73,6.3-5.62,9.44c-0.16,0.26-0.32,0.54-0.55,0.72c-3.92,3-4.66,7.45-5.63,12.19
	c-2.64-1.87-8.04-6.69-8.39-6.39c-0.09-0.03-0.26-0.04-0.37-0.13c-0.95-0.74-1.9-1.49-2.84-2.25c-1.27-1.01-2.49-2.07-3.79-3.03
	C179.98,423.71,179.54,423.33,180.14,422.49z M173.55,443.92c0.72-0.85,0.97-1.67,0.47-2.78c-0.28-0.64-0.35-1.52-0.16-2.19
	c0.88-3.13,1.84-6.24,2.84-9.34c0.58-1.79,1.2-1.99,2.77-0.82c1.51,1.12,2.88,2.41,4.36,3.56c2.08,1.62,4.12,3.31,6.32,4.74
	c4.08,2.66,8.18,5.32,12.45,7.67c2.69,1.47,5.53,2.71,8.6,3.4c1.48,0.32,2.83,1.36,4.13,2.22c0.39,0.26,0.44,1.03,0.7,1.73
	c-0.43,1.01-0.86,2.01-1.31,3c-1.37,3.05-2.76,6.09-4.11,9.16c-0.37,0.85-0.85,0.96-1.78,0.9c-3.85-0.27-7.42-1.6-11.02-2.78
	c-1.87-0.61-3.63-1.6-5.38-2.53c-0.74-0.39-1.3-1.09-1.99-1.59c-0.6-0.43-1.24-0.82-1.9-1.16c-0.95-0.49-2.11-0.72-2.87-1.41
	c-2.38-2.16-5.65-2.73-8.08-4.71c-1.52-1.24-2.94-2.63-4.27-4.07C172.43,445.96,172.77,444.85,173.55,443.92z M181.63,481.79
	c-1.67-1.58-2.48-2.8-3.68-4.87c0.07-0.08-1.66-3.06-2-4.72c-0.08-0.38-2.37-5.2-3.49-10.34c-0.92-4.22-0.38-9.54-0.83-10.6
	c3.32,3.1,7.27,5.04,11.18,7.07c0.9,0.47,2.1,0.83,2.53,1.59c0.55,1,0.61,2.35,0.63,3.56c0.01,1.04-0.58,2.12-0.45,3.13
	c0.31,2.4,0.72,4.81,1.41,7.12c0.6,2.01,1.64,3.89,2.46,5.83c0.15,0.36,0.22,0.76,0.43,1.48
	C187.04,481.29,184.45,481.53,181.63,481.79z M197.84,497.29c-1.78-1.33-3.47-2.77-5.2-4.16c-0.08-0.06-0.19-0.09-0.26-0.16
	c-2.09-2.02-4.25-3.97-6.24-6.08c-0.79-0.84-0.93-1.71,0.31-1.71c1.83-0.02,3.66-0.09,5.49,0c0.41,0.01,3.52-0.47,3.52-1.31
	c-0.07-0.13-2.59-4-2.72-4.34c-0.77-2.02-1.6-4.04-2.17-6.12c-0.58-2.14-1.01-4.35-1.25-6.55c-0.13-1.25,0.26-2.55,0.43-4
	c0.68,0.39,1.07,0.61,1.45,0.83c4.07,2.37,8.49,3.78,13.04,4.8c0.72,0.16,1.5,0.07,2.26,0.12c0.49,0.03,1.02-0.01,1.47,0.17
	c2.2,0.87,3.44,0.62,4.98-1.15c0.39-0.45,0.63-1.07,1.08-1.44c0.39-0.33,0.57-1.98,1.05-2.84c0.58-1.02,1.06-2.09,1.48-3.18
	c0.52-1.34,1.83-4.77,2.36-6.02c0.95-2.22,0.22-4.42,0.05-6.62c-0.02-0.32-0.54-0.74-0.92-0.88c-1.84-0.69-3.73-1.25-5.56-1.97
	c-2.83-1.11-5.63-2.3-8.42-3.5c-0.39-0.17-0.62-0.66-0.98-0.92c-0.98-0.69-2.67-1.19-2.86-2.05c-0.34-1.49-0.03-3.27,0.49-4.77
	c0.74-2.18,1.93-4.1,3.55-5.9c2.19-2.43,3.77-5.38,5.63-8.11c0.74-1.09,1.49-2.17,2.27-3.23c0.2-0.27,0.53-0.46,0.83-0.64
	c0.44-0.27,1.23-0.43,1.31-0.76c0.17-0.8,0.27-1.79-0.06-2.49c-0.41-0.86-1.26-1.52-1.96-2.23c-1.32-1.35-2.67-2.66-3.98-4.01
	c-0.18-0.19-0.16-0.57-0.33-1.23c1.79-0.13,3.49-0.49,5.13-0.3c1.76,0.21,3.4-0.22,5.1-0.26c1.6-0.03,3.05,0.32,3.8,1.25
	c1.02,0.16,1.74,0.12,2.31,0.39c2.23,1.05,4.4,2.24,6.63,3.29c1.17,0.55,2.25,1.11,2.94,2.29c0.61,1.01,1.42,1.76,2.78,1.19
	c0.29-0.11,0.69,0.08,1.03,0.08c1.07,0.02,2.14,0.01,2.92,0.01c0.5,0.45,0.92,0.83,1.24,1.11c0.39-1.55,0.83-2.84,1.03-4.16
	c0.18-1.18,0.88-1.68,1.91-1.83c3.05-0.47,5.74-1.97,8.56-3.06c2.63-1.01,5.15-2.33,7.8-3.29c1.6-0.58,3.34-0.82,5.04-1.04
	c2.81-0.37,5.64-0.82,8.46-0.85c2.82-0.03,5.65,0.35,8.47,0.65c2.56,0.28,5.11,0.69,7.66,1.04c2.76,0.38,5.35,1.28,7.66,2.82
	c2.36,1.57,4.68,3.23,6.91,5c1.73,1.38,3.29,2.99,4.93,4.48c0.15,0.14,0.32,0.24,0.5,0.34c1.35,0.77,1.54,1.08,1.54,2.64
	c2.14,1.14,3.34,3.12,4.54,5.1c1.58,2.61,3.27,5.2,3.61,8.34c0.15,1.4,0.16,2.82,0.15,4.23c0,0.3-0.29,0.62-0.51,0.88
	c-2.08,2.51-4.65,4.35-7.6,5.73c-1.33,0.62-2.56,1.45-3.88,2.11c-0.51,0.26-1.13,0.32-1.7,0.48c-0.28,0.08-0.74,0.14-0.78,0.29
	c-0.48,1.85-2.2,1.76-3.51,2.28c-0.88,0.36-1.88,0.45-2.71,0.88c-3.14,1.61-6.65,1.4-9.97,2.11c-4.13,0.89-8.34,0.79-12.52,1.07
	c-3.11,0.21-6.21,0.92-9.27,1.59c-2.28,0.5-4.14,1.9-5.86,3.43c-0.14,0.13-0.28,0.29-0.33,0.46c-0.3,1.01-0.54,2.03-0.87,3.03
	c-0.43,1.27-0.67,2.42-0.3,3.87c0.44,1.71,0.16,3.61,0.09,5.43c-0.05,1.06-0.29,2.11-0.47,3.16c-0.27,1.56,0.3,2.92,1.04,4.2
	c0.65,1.12,1.46,2.15,2.35,3.43c-0.85,0.1-0.24,1.69-0.19,2.61c0.16,2.57,0.95,4.91,2.65,6.96c2.94,3.53,7.26,4.54,11.16,6.34
	c0.77,0.36,1.68,0.46,2.38,0.91c1.84,1.18,4.03,1.26,5.96,2.12c2.2,0.99,4.54,1.3,7.05,1.63c-1.84,1.28-3.68,2.56-5.5,3.85
	c-1.16,0.82-2.27,1.7-3.45,2.5c-0.86,0.59-1.76,1.11-2.69,1.6c-3.21,1.68-6.48,3.26-10.09,3.91c-0.26,0.05-9.01,1.41-9.01,1.52
	c-0.3,0.24-0.56,0.6-0.9,0.69c-0.48,0.13-1.03,0.16-1.51,0.05c-1.37-0.32-2.55,0.23-3.84,0.49c-1.48,0.31-3.13-0.22-4.89-0.41
	c-0.85,1.03-2.41,1.38-3.89,1.36c-1.91-0.03-3.81-0.46-5.7-0.79c-2.63-0.47-5.27-0.94-7.87-1.57c-0.99-0.23-1.87-0.9-2.79-1.38
	c-0.08-0.04-0.14-0.23-0.16-0.23c-1.59,0.57-2.77-0.65-4.15-0.97c-2.37-0.54-4.71-1.23-7.02-1.98c-1.53-0.49-3-1.18-4.48-1.82
	c-2.57-1.13-5.05-2.51-7.89-2.95c-0.57-0.09-1.08-0.56-1.65-0.76c-0.92-0.33-1.9-0.86-2.84-1.14
	C202.1,501.14,199.47,498.5,197.84,497.29z M245.4,545.49c-0.6,0.07-1.2,0.2-1.8,0.19c-2.69-0.01-5.39,0.09-8.06-0.15
	c-2.58-0.23-5.13-0.78-7.66-1.3c-0.75-0.15-8.14-2.53-10.06-3.21c-1.57-0.55-3.13-1.13-4.66-1.77c-0.53-0.21-4.26-3.17-5.33-3.94
	c-1.5-1.07-2.5-2.37-3.73-3.55c-0.59-0.56-1.03-1.32-1.45-2.04c-0.52-0.87-1.19-1.65-1.72-2.44c-0.65-1-1.27-2.16-1.74-3.23
	c-1.04-2.39-1.45-5.04-2.07-7.6c-0.17-0.73-0.06-1.54-0.24-2.26c-0.6-2.39,0.94-4.04,2.19-5.6c0.52-0.64,2.13-0.5,3.25-0.56
	c2-0.12,4-0.15,5.99-0.17c0.48,0,1.01,0.07,1.44,0.26c2.45,1.12,4.83,2.39,7.32,3.39c3.39,1.36,6.84,2.56,10.3,3.75
	c3.45,1.19,6.91,2.42,10.6,2.73c0.17,0.02,0.33,0.2,0.35,0.22c-1.01,2.73-2.05,5.36-2.96,8.04c-0.51,1.51-0.74,3.09-0.26,4.71
	c0.61,2.07,1.02,4.21,1.75,6.24c0.32,0.89,1.22,1.57,1.87,2.32c1.14,1.3,2.69,2.19,3.57,3.81c0.31,0.56,1.32,0.75,2.01,1.12
	c0.38,0.21,0.76,0.45,1.14,0.67C245.42,545.24,245.41,545.37,245.4,545.49z M411.72,272.02c-1.03,0.72-1.94,1.69-3.06,2.15
	c-2.88,1.17-3.5,3.13-1.67,5.58c0.61,0.83,1.15,1.82,1.37,2.81c0.89,4.06,1.92,8.12,2.35,12.24c0.42,3.96,0.58,8-0.29,11.98
	c-0.16,0.74-0.17,1.53-0.1,2.28c0.37,3.9-0.99,7.38-2.63,11.01c-0.73-0.35-1.39-0.67-2.11-1.01c-1.26,1.1-2.69,2.17-1.64,4.41
	c-1.83-0.76-3.92,0.1-5.36-1.67c-0.26-0.32-1.42-0.14-2.05,0.11c-0.73,0.3-0.75,1.19-0.39,1.74c1.88,2.89,1.5,6.03,1.09,9.15
	c-0.18,1.39-0.49,2.8-1.05,4.08c-0.42,0.97-1.21,1.86-2.02,2.56c-1.02,0.89-2.09,0.2-3.14-0.22c-0.5-0.21-1.12-0.14-1.69-0.2
	c0.05,0.6,0.01,1.22,0.16,1.79c0.14,0.52,0.5,0.98,0.78,1.51c-0.32,0.49-0.65,1-1.03,1.56c-0.82-0.33-1.29-0.21-1.9,0.67
	c-1,1.43-2.39,2.6-3.72,3.77c-0.44,0.39-1.19,0.44-1.97,0.72c0.07-2.29-0.42-5.85-0.16-5.57c0.1-0.15,0.26-0.27,0.24-0.37
	c-0.27-1.87,0.11-3.73-0.23-5.64c-0.38-2.11-2.01-4.03-1.16-6.36c0.09-0.25,0.05-0.72-0.12-0.88c-2.12-1.94-3.35-7.47-3.35-7.66
	c0.1-1.34-1.11-2.94-0.6-3.09c2.27-0.66,4.19-1.73,5.42-3.87c0.43-0.74,1.07-1.36,1.66-1.99c0.56-0.59,1.15-1.09,0.99-2.08
	c-0.06-0.33,0.41-0.75,0.64-1.13c0.77-1.23,1.42-2.46,0.9-4.01c-0.15-0.45-0.22-1.07-0.02-1.47c0.95-1.91,0.08-3.87-0.07-5.69
	c-0.19-2.48-1.38-4.9-2.24-7.31c-0.92-2.59-2.6-4.7-4.63-6.5c-1.28-1.13-2.54-2.24-3.53-3.65c-0.23-0.33-2.19-0.61-2.38-1.22
	c-0.2-0.66-3.82-3-3.93-2.04c-1.57-0.86-3.51,0.88-5.08-0.83c-0.11-0.13-0.38-0.12-0.58-0.16c-3.13-0.61-6.25-1.48-9.42-1.75
	c-2.75-0.23-5.58,0.13-8.35,0.41c-1.34,0.14-2.63,0.77-3.97,1.03c-1.67,0.33-3.2-0.19-4.62-1.11c-0.49-0.32-1.07-0.53-1.63-0.68
	c-1.6-0.42-2.18-0.14-2.58,1.36c-0.12,0.46,0.1,1.19,0.43,1.54c0.58,0.62,1.41,0.99,2.05,1.56c1.79,1.64,4.31,1.99,6.13,3.52
	c2.6,2.18,5.11,4.47,7.66,6.7c1.52,1.34,3.09,2.61,4.56,3.99c1.44,1.35,2.83,2.76,4.14,4.22c1.66,1.87,3.25,3.8,4.8,5.76
	c0.31,0.38,0.27,1.04,0.42,1.67c0.72-0.39,1.23,0.09,1.72,0.91c0.73,1.22,1.59,2.36,2.39,3.53c0.14,0.21,0.39,0.48,0.34,0.65
	c-0.39,1.29,0.64,1.54,1.46,1.97c-0.14,0.56,2.34,5.48,3.19,7.73c0.72,1.94,1.39,3.9,1.99,5.89c0.8,2.66,1.5,5.35,2.25,8.03
	c0.06,0.2,0.08,0.41,0.19,0.57c1.89,2.79,0.74,5.83,0.74,8.77c-0.01,2.42,0.09,4.84,0,7.26c-0.04,0.97-0.36,1.98-0.76,2.89
	c-0.33,0.74-0.78,1.34-0.61,2.25c0.07,0.39-0.54,0.86-0.69,1.33c-0.63,2.09-1.19,4.21-1.82,6.3c-0.28,0.91-0.63,1.8-0.99,2.68
	c-1.88,4.56-4.18,8.87-6.82,13.07c-2.44,3.87-5.41,7.2-8.45,10.54c-0.92,1.02-1.66,2.2-2.63,3.16c-3.2,3.19-6.39,6.41-9.74,9.45
	c-1.83,1.66-3.85,3.21-6.01,4.39c-2.07,1.13-4.45,1.67-6.67,2.53c-2.06,0.79-4.09,1.63-6.11,2.5c-0.36,0.16-0.91,0.76-0.84,0.88
	c0.23,0.44,0.64,0.99,1.06,1.06c0.94,0.18,1.93,0.1,2.89,0.12c1.47,0.01,2.84,0,4.18-1c1.14-0.85,2.69-1.15,4.07-1.64
	c2.76-0.99,5.15-2.56,7.49-4.3c2.21-1.65,4.2-3.6,6.82-4.72c1.3-0.55,2.34-1.74,3.44-2.7c0.73-0.63,1.3-1.44,2.05-2.03
	c2.96-2.3,5.19-5.26,7.61-8.07c0.68-0.78,1.58-1.38,2.41-2.02c0.63-0.5,1.3-0.94,2.11-1.51c1.32,1.12,2.89,2.17,4.11,3.54
	c2.24,2.49,4.41,5.07,6.36,7.8c2.03,2.85,3.79,5.9,5.63,8.88c1.1,1.78,2.27,3.53,3.17,5.4c2.21,4.58,4.41,9.17,6.38,13.85
	c1.16,2.76,1.96,5.67,2.79,8.55c0.81,2.81,1.46,5.67,2.19,8.51c0.5,1.91,1.08,3.81,1.47,5.75c0.37,1.81,0.63,3.66,0.78,5.51
	c0.23,2.88,0.34,5.78,0.49,8.67c0.13,2.48,0.38,4.95,0.31,7.42c-0.06,2.46-0.44,4.9-0.69,7.35c-0.19,2.02-0.36,4.04-0.6,6.06
	c-0.13,1.1-0.37,2.19-0.6,3.28c-0.28,1.38-0.56,2.77-0.92,4.14c-0.54,2.12-1.13,4.22-1.76,6.31c-0.09,0.31-0.71,0.75-0.76,0.71
	c-0.59-0.47-0.92-0.03-1.03,0.38c-0.06,0.27,0.27,0.64,0.36,0.82c-0.23,0.42-0.68,0.86-0.64,1.24c0.24,2.39-0.79,4.39-1.75,6.45
	c-1.2,2.52-2.18,5.15-3.41,7.66c-1.04,2.12-1.91,4.57-3.58,6.07c-1.4,1.26-1.2,3.34-2.91,4.22c-0.24,0.13-0.12,0.97-0.13,1.12
	c-0.69,0.75-1.21,1.31-1.73,1.87c-0.18,0.19-0.36,0.43-0.58,0.52c-0.67,0.24-0.99,0.6-0.88,1.38c0.04,0.28-0.22,0.85-0.43,0.9
	c-1.7,0.36-2.41,1.37-2.2,3.07c-0.01,0.14-0.02,0.29-0.04,0.44l-0.1,0.02l-0.1-0.01c-0.04,0.1-0.09,0.18-0.15,0.27
	c-0.97,1.11-1.9,2.26-2.92,3.31c-0.25,0.26-2.98,1.47-2.35,1.64c-2.24,1.13-4.2,2.19-6.22,3.11c-3.97,1.81-7.88,3.8-11.99,5.19
	c-3.07,1.04-6.08,2.39-9.5,2.47c-2.09,0.05-4.16,0.99-6.24,1.51c-1.45,0.37-2.89,0.78-4.36,1.03c-3.11,0.54-6.22,1.13-9.36,1.43
	c-2.76,0.26-5.55,0.1-8.32,0.19c-1.27,0.04-2.53,0.25-3.8,0.33c-1.46,0.1-2.92,0.12-4.38,0.21c-2.13,0.11-4.26,0.43-6.38,0.34
	c-2.45-0.11-4.9-0.57-7.34-0.9c-2.57-0.35-5.12-0.73-7.69-1.1c-0.69-0.1-7.93-1.08-8.34-1.14c-2.37-0.32-4.75-0.61-7.07-1.15
	c-1.91-0.46-3.73-1.33-5.63-1.88c-1.44-0.43-2.97-0.55-4.4-0.99c-5.37-1.66-10.37-4.06-14.73-7.68c-0.83-0.69-1.65-1.41-2.34-2.24
	c-0.57-0.68-0.91-1.54-1.39-2.29c-0.34-0.55-0.78-1.04-1.11-1.59c-0.3-0.49-0.51-1.03-0.75-1.55c-0.13-0.28-0.21-0.59-0.37-0.84
	c-0.6-0.91,0.3-1.21,0.26-1.37c-0.61-2.58-1.67-5.31-0.04-7.72c0.94-1.4,3.3-4.25,3.18-3.53c2.79-0.13,5.5-0.24,8.21-0.37
	c0.21-0.01,0.42-0.14,0.6-0.1c2.76,0.58,5.32-1.1,8.11-0.67c0.88,0.14,1.87-0.69,2.85-0.81c1.26-0.15,2.56-0.03,4.1-0.03
	c0.23-0.6,1-0.95,1.99-0.96c0.43-0.01,0.87-0.2,1.28-0.37c2.66-1.09,5.29-2.27,7.99-3.27c1.62-0.6,3.45-0.68,4.98-1.42
	c2.15-1.05,4.39-1.98,6.15-3.77c0.89-0.89,2.14-1.42,3.22-2.14c1.07-0.72,2.3-1.28,2.74-2.68c0.1-0.3,0.43-0.55,0.7-0.77
	c1.23-0.95,2.47-1.88,3.7-2.81c2.94,0,5.99,0.19,9-0.05c3.42-0.28,6.83-0.82,10.2-1.51c2.65-0.54,5.32-1.22,7.79-2.29
	c2.94-1.28,6.28-1.5,8.93-3.53c0.74-0.57,1.71-0.85,2.52-1.34c0.36-0.21,1.78-2.37,2.59-1.91c1.16-0.8,2.16-1.57,3.23-2.21
	c1.75-1.05,3.57-1.9,4.51-3.99c0.36-0.8,2.61-3.22,3.31-2.81c1.04-1.09,2.11-2.13,3.07-3.27c2.39-2.83,5.12-5.48,6.97-8.65
	c1.64-2.78,3.3-5.67,4.38-8.77c0.3-0.84,0.35-1.79,0.38-2.7c0.02-0.96-0.73-1.32-1.54-1.32c-0.75,0-1.18,0.36-1.4,1.26
	c-0.33,1.36-0.89,2.71-1.58,3.92c-1.65,2.87-3.32,5.72-5.19,8.44c-1.28,1.87-2.8,3.62-4.4,5.23c-2.78,2.82-5.6,5.61-8.59,8.19
	c-3.23,2.78-6.77,5.17-10.72,6.86c-0.36,0.16-2.64,0.84-2.57,1.23c-2.33,0.81-9.86,2.6-11.17,2.97c-6.63,1.87-9.46,2.14-14.26,2.48
	c-4.24,0.31-8.54-0.1-12.8-0.23c-0.54-0.01-1.12-0.13-1.58-0.39c-1.42-0.8-2.85-0.54-4.33-0.1c-0.4-1.32-1.47-1.36-2.47-1.52
	c-1.22-0.19-2.52-0.19-3.65-0.62c-3.05-1.16-6.1-2.37-9.01-3.84c-1.68-0.86-3.41-1.88-4.49-3.58c-0.25-0.41-0.59-1.21-0.44-1.36
	c0.38-0.36,0.6-0.98,1.5-0.84c2.04,0.34,4.27,0.92,6.15,0.41c2.39-0.65,5.31-0.58,6.9-3.16c0.63-1.01,0.25-2.04-0.95-2.16
	c-0.5-0.05-1.06-0.05-1.51,0.13c-3.12,1.28-6.33,0.87-9.52,0.5c-0.66-0.07-1.28-0.57-1.93-0.84c-0.83-0.36-1.67-0.69-2.44-1
	c0.02-0.01,0.21-0.14,0.24-0.16c-0.63-1.25-1.25-2.47-1.86-3.69c-0.13-0.27-0.34-0.57-0.32-0.84c0.07-0.68,0.26-1.35,0.39-2.03
	c0.6,0.18,1.25,0.28,1.8,0.56c2.47,1.28,5.11,1.87,7.87,1.89c1.38,0.01,2.76-0.07,4.13-0.14c0.51-0.02,1.14,0.05,1.48-0.22
	c0.49-0.39,1.02-1.04,1.05-1.61c0.01-0.34-0.86-0.97-1.38-1.04c-2.27-0.29-4.56-0.39-6.84-0.61c-3.46-0.34-7.05-3.55-7.7-6.93
	c-0.1-0.51,0.23-1.1,0.15-1.66c0.06-1.23,0.12-2.46,0.19-3.94c0.47-0.11,1.01-0.21,1.54-0.36c0.58-0.16,1.14-0.36,1.71-0.53
	c0.57-0.18,1.15-0.51,1.73-0.5c1.2,0.01,2.36,0.32,3.53-0.44c0.62-0.4,1.55-0.4,2.35-0.43c2.93-0.11,5.87-0.14,8.8-0.25
	c0.52-0.02,1.03-0.36,1.56-0.46c2.02-0.36,4.04-0.72,6.07-1.01c1.56-0.21,3.1-0.36,4.67-0.72c2.26-0.52,4.28-1.33,6.27-2.38
	c0.13-0.07,0.25-0.3,0.34-0.29c3.35,0.56,5.59-1.63,8.13-3.16c0.93-0.55,2.11-0.66,3.15-1.05c0.94-0.35,2.01-0.62,2.71-1.26
	c1.35-1.27,2.44-2.81,3.73-4.15c1.15-1.19,2.49-2.2,3.64-3.38c0.94-0.96,1.73-2.04,2.58-3.08c1.21-1.48,2.38-2.99,3.65-4.42
	c0.68-0.77,0.71-1.59,0.37-2.41c-0.3-0.69-0.98-0.98-1.65-0.5c-1.88,1.36-3.91,2.56-5.17,4.62c-0.12,0.2-0.29,0.37-0.61,0.78
	c-0.2-3.2-1.16-5.92-2.43-8.52c-0.67-1.36-1.57-2.61-2.35-3.91c-0.31-0.52-0.54-1.11-0.89-1.59c-1.05-1.43-2.1-2.86-3.23-4.22
	c-1.23-1.47-2.57-2.85-3.83-4.29c-1.31-1.48-2.47-3.1-3.9-4.45c-1.27-1.19-2.82-2.09-4.26-3.12c-0.07-0.05-0.21-0.08-0.29-0.05
	c-2.27,0.77-3.97-0.89-5.95-1.37c-2.81-0.68-5.63-1.35-8.48-1.83c-3.5-0.58-7.02-1.18-10.55-1.36c-3.19-0.16-6.41,0.16-9.6,0.4
	c-1.92,0.14-3.83,0.46-5.72,0.82c-1.52,0.28-3.02,0.72-4.52,1.13c-4.26,1.17-7.96,3.63-12.08,5.12c-0.24,0.09-0.45,0.33-0.67,0.33
	c-2.79,0-4.63,1.79-6.54,3.45c-1.36,1.17-1.79,1.21-3.41,0.31c-2.53-1.41-4.98-2.98-7.6-4.19c-2.6-1.2-5.17-2.57-8.1-2.88
	c-0.91-0.1-1.56-0.64-2.27-1.31c-1.35-1.26-2.93-2.33-4.56-3.24c-1.54-0.85-3.2-1.4-4.35-2.91c-0.62-0.82-1.72-1.26-2.48-2
	c-1.44-1.39-2.9-2.8-4.17-4.36c-2.09-2.58-3.87-5.42-6.06-7.91c-2.98-3.4-2.46-6.96-1.13-10.72c1.24-3.49,2.37-7.01,3.57-10.51
	c0.81-2.36,1.76-4.66,2.47-7.04c0.81-2.68,1.48-5.39,2.1-8.11c0.79-3.43,0.37-6.88,0.04-10.32c-0.13-1.4-0.1-2.83,0-4.23
	c0.18-2.68,0.36-5.37,0.74-8.03c0.21-1.43,0.85-2.8,1.28-4.2c1.02-3.28,1.89-6.62,3.09-9.84c0.66-1.78,1.74-3.45,2.84-5.02
	c1.88-2.65,3.84-5.27,5.94-7.75c1.7-2.01,3.65-3.81,5.53-5.67c0.75-0.75,1.59-1.42,2.39-2.13c1.08-0.96,1.47-2.58,0.92-3.87
	c-0.32-0.76-1.49-1.24-2.18-0.78c-1.34,0.88-2.75,1.73-3.89,2.83c-1.03,1.01-2.21,1.54-3.5,1.55c-2.49,0.04-4.72,1.02-7.07,1.56
	c-4.23,0.97-7.43,3.47-10.46,6.46c-2.78,2.75-5.23,5.74-7.12,9.11c-1.42,2.53-2.58,5.24-3.5,7.99c-1.19,3.53-2.06,7.17-3,10.77
	c-0.15,0.61-0.62,1.52,0.68,1.73c0.21,0.04,0.42,0.9,0.38,1.35c-0.19,1.9-0.15,3.75,0.58,5.54c0.54,1.34,1,2.72,1.53,4.06
	c0.44,1.13,0.77,2.36,1.46,3.32c0.69,0.94,1.69,1.74,2.7,2.33c1.75,1.02,3.57,1.93,5.45,2.68c0.83,0.32,1.21,0.49,0.95,1.44
	c-1.13,4.03-1.55,8.26-3.63,12.03c-0.87,1.58-1.25,3.42-2.07,5.02c-0.52,1.02-1.45,1.82-2.19,2.73c-0.11,0.14-0.16,0.34-0.22,0.51
	c-0.11,0.28-0.14,0.75-0.31,0.81c-1.46,0.44-1.75,1.89-2.53,2.9c-0.62,0.82-1.34,1.08-2.27,0.8c-3.15-0.95-5.73-2.77-7.71-5.38
	c-1.39-1.82-2.79-3.69-3.08-6.05c-0.18-1.45-0.4-3.02-0.06-4.4c0.7-2.88-0.15-5.65-0.12-8.46c0.02-1.86,0.25-3.73,0.45-5.59
	c0.12-1.1,0.36-2.18,0.53-3.27c0.11-0.72,0.58-1.78-0.39-1.97c-0.8-0.16-2.28,0.16-2.55,0.71c-1.24,2.52-2.82,4.94-2.86,7.95
	c-0.02,1.64-0.43,3.28-0.66,4.94c-1.54-0.39-4.02-4.86-3.56-6.17c-0.34-0.19-0.69-0.37-1.01-0.55c0.09-1.93,0.07-3.8,0.29-5.65
	c0.37-3.23,0.81-6.47,1.38-9.67c0.38-2.14,0.92-4.26,1.59-6.32c0.54-1.64,1.03-3.34,2.76-4.35c0.61-0.35,1.05-1.28,1.22-2.03
	c0.23-0.94,0.08-1.95-0.86-2.6c-0.96-0.66-1.73-0.03-2.34,0.49c-1.46,1.26-2.75,2.72-4.21,3.98c-1.42,1.21-2.96,2.28-4.48,3.38
	c-0.93,0.68-3.37-0.01-4.23-1.15c-0.92-1.21-1.05-2.53-0.88-4.03c0.35-3.02,1.6-5.74,2.44-8.59c0.96-3.27,3.37-5.68,4.31-8.86
	c0.02-0.06,0.17-0.08,0.38-0.17c0.05,0.49,0.1,0.93,0.15,1.38c0.12,0,0.24,0,0.36,0.01c0.05-1.12,0.32-2.27,0.11-3.34
	c-0.18-0.93,0.1-1.6,0.69-1.99c0.68-0.46,0.86-1.01,1.04-1.7c0.33-1.24,2-3.31,2.61-3.89c0.46-0.94,0.85-1.94,1.41-2.82
	c2.22-3.47,4.62-6.83,6.67-10.38c0.84-1.45,1.56-2.93,2.6-4.26c0.66-0.85,1.08-1.82,2.38-1.87c0.3-0.01,0.58-0.61,0.86-0.94
	c0.45-0.54,0.79-1.22,1.35-1.6c2.18-1.49,4.36-3,6.66-4.27c1.73-0.95,3.35-2.13,5.42-2.49c1.12-0.19,2.08-1.15,3.19-1.59
	c2.7-1.09,5.43-2.12,8.43-0.98c0.35,0.13,1.01-0.13,1.33-0.42c2.45-2.28,5.35-3.07,8.59-2.6c2.66,0.38,5.3,0.88,7.95,1.34
	c0.3,0.05,0.61,0.12,0.88,0.25c1.62,0.77,3.22,1.56,4.99,2.42c0,0.02-0.13,0.32-0.23,0.63c-0.17,0.53-0.08,0.74,0.52,1.08
	c0.84,0.47,1.46,1.35,2.12,2.11c1.36,1.58,2.72,3.16,3.98,4.81c0.47,0.61,0.75,1.33,0.45,2.25c-0.42,1.3,0.18,2.12,1.51,2.47
	c0.49,0.14,0.98,0.43,1.46,0.41c0.68-0.02,1.57-0.04,1.98-0.45c2.1-2.12,4.56-3.71,7.22-4.96c1.49-0.71,3.15-1.06,4.75-1.48
	c2.58-0.65,5.19-1.23,7.78-1.83c0.59-0.14,1.19-0.3,1.8-0.37c4.22-0.44,8.46-0.84,12.68-1.29c3.47-0.37,6.83,0.14,10.16,1.07
	c0.66,0.19,1.41,0.11,2.12,0.08c3.37-0.13,6.49,0.89,9.6,2.01c2.51,0.9,4.99,1.94,7.54,2.73c1.28,0.4,2.69,0.39,4.05,0.5
	c0.23,0.02,0.64-0.22,0.7-0.42c0.4-1.3,1.59-1.64,2.57-2.25c1.55-0.95,3.11-1.88,4.61-2.91c0.6-0.42,1.03-1.09,1.55-1.64
	c1.6-1.7,3.06-3.6,4.87-5.04c1.12-0.89,1.91-1.89,2.62-3.04c0.1-0.16,0.34-0.41,0.42-0.37c1.48,0.6,1.99-0.94,3-1.35
	c0.55-0.22,1.04-0.59,1.59-0.83c0.24-0.11,0.74-0.2,0.8-0.1c0.14,0.25,1.04-1.74,2.89-2.45c0.86-0.34,1.66-0.85,2.48-1.29
	c1.78-0.95,3.48-2.13,5.36-2.8c1.89-0.66,3.95-0.84,5.94-1.2c0.44-0.08,0.92,0.04,1.35-0.07c3.49-0.98,6.97-0.65,10.43,0.15
	c3.51,0.81,7.06,1.53,10.49,2.63c3.77,1.21,7.61,2.34,10.96,4.59c5.8,3.88,11.69,7.64,17.34,11.73c3.2,2.31,5.99,5.18,8.99,7.77
	c1.55,1.34,3.01,2.71,3.78,4.69C412.41,270.97,412.45,271.52,411.72,272.02z M374.44,314.71c-1.35-2.24-2.52-4.22-3.72-6.17
	c-0.75-1.21-1.56-2.38-2.34-3.57c-1.04-1.57-1.94-3.26-3.15-4.69c-1.35-1.61-2.96-3-4.47-4.48c-0.1-0.11-0.27-0.18-0.32-0.31
	c-0.97-2.59-3.45-3.74-5.24-5.55c-1.33-1.34-3.03-2.09-4.42-3.28c-1.38-1.18-2.61-2.53-3.96-3.75c-0.79-0.73-1.68-1.34-2.75-2.18
	c3.4-1.06,6.51-1.46,9.71-0.59c0.93,0.25,1.9,0.43,2.86,0.47c5.22,0.24,9.9,2.01,14.36,4.66c2.06,1.22,4.06,2.45,5.85,4.06
	c1.67,1.51,2.7,3.25,3.04,5.46c0.14,0.84,0.46,1.66,0.66,2.5c0.42,1.77,0.87,3.54,1.19,5.33c0.4,2.19-0.18,4.21-1.23,6.15
	c-0.62,1.14-1.06,2.36-1.59,3.54c-0.06,0.14-0.13,0.31-0.24,0.37C377.22,313.55,375.83,314.61,374.44,314.71z M199.7,327.53
	c0.05,0.93-0.19,1.87-0.21,2.81c-0.03,1.67,0.05,3.33,0,5c-0.01,0.61-0.24,1.21-0.38,1.82c-0.53-0.22-1.19-0.3-1.56-0.68
	c-1.43-1.47-2.76-3.04-4.13-4.56c-0.27-0.3-0.55-0.59-0.85-0.86c-1.44-1.3-2-3.01-2.17-4.85c-0.18-1.96-0.29-3.93-0.35-5.89
	c-0.06-2.12,0.46-4.07,1.44-5.99c0.75-1.46,0.9-3.21,1.54-4.74c0.96-2.29,2.12-4.5,3.19-6.74c0.78-1.65,1.81-3.06,3.56-3.84
	c0.31-0.15,0.44-0.67,0.7-0.98c0.43-0.56,0.82-1.2,1.37-1.6c2.54-1.82,4.85-4.01,7.82-5.16c1.22-0.46,2.46-0.83,3.69-1.25
	c-2.99,5-6.38,9.51-8.56,14.76c-0.52,1.25-1.28,2.41-1.81,3.67c-0.37,0.87-0.5,1.85-0.78,2.76
	C200.56,316.52,199.44,321.91,199.7,327.53z"/>
<path class="st2" d="M189.82,481.04c-2.78,0.25-5.37,0.49-8.19,0.75c-1.67-1.58-2.48-2.8-3.68-4.87c0.07-0.08-1.66-3.06-2-4.72
	c-0.08-0.38-2.37-5.2-3.49-10.34c-0.92-4.22-0.38-9.54-0.83-10.6c3.32,3.1,7.27,5.04,11.18,7.07c0.9,0.47,2.1,0.83,2.53,1.59
	c0.55,1,0.61,2.35,0.63,3.56c0.01,1.04-0.58,2.12-0.45,3.13c0.31,2.4,0.72,4.81,1.41,7.12c0.6,2.01,1.64,3.89,2.46,5.83
	C189.54,479.92,189.61,480.32,189.82,481.04z"/>
<path class="st2" d="M207.83,413.65c-1.83,3.17-3.73,6.3-5.62,9.44c-0.16,0.26-0.32,0.54-0.55,0.72c-3.92,3-4.66,7.45-5.63,12.19
	c-2.64-1.87-8.04-6.69-8.39-6.39c-0.09-0.03-0.26-0.04-0.37-0.13c-0.95-0.74-1.9-1.49-2.84-2.25c-1.27-1.01-2.49-2.07-3.79-3.03
	c-0.66-0.49-1.1-0.87-0.5-1.71c0.87-1.21,1.63-2.49,2.52-3.67c0.74-0.99,1.58-1.91,2.4-2.84c1.03-1.16,2.09-2.29,3.14-3.44
	c0.14-0.14,0.29-0.29,0.46-0.38c2.23-1.15,4.45-2.32,6.71-3.42c1.42-0.69,2.88-1.31,4.34-1.89c0.88-0.35,1.61-0.35,2.44,0.5
	c0.88,0.89,2.26,1.28,3.28,2.05c0.96,0.73,1.85,1.61,2.57,2.57C208.25,412.31,208.09,413.19,207.83,413.65z"/>
<path class="st2" d="M216.03,452.11c-0.43,1.01-0.86,2.01-1.31,3c-1.37,3.05-2.76,6.09-4.11,9.16c-0.37,0.85-0.85,0.96-1.78,0.9
	c-3.85-0.27-7.42-1.6-11.02-2.78c-1.87-0.61-3.63-1.6-5.38-2.53c-0.74-0.39-1.3-1.09-1.99-1.59c-0.6-0.43-1.24-0.82-1.9-1.16
	c-0.95-0.49-2.11-0.72-2.87-1.41c-2.38-2.16-5.65-2.73-8.08-4.71c-1.52-1.24-2.94-2.63-4.27-4.07c-0.89-0.96-0.55-2.07,0.23-3
	c0.72-0.85,0.97-1.67,0.47-2.78c-0.28-0.64-0.35-1.52-0.16-2.19c0.88-3.13,1.84-6.24,2.84-9.34c0.58-1.79,1.2-1.99,2.77-0.82
	c1.51,1.12,2.88,2.41,4.36,3.56c2.08,1.62,4.12,3.31,6.32,4.74c4.08,2.66,8.18,5.32,12.45,7.67c2.69,1.47,5.53,2.71,8.6,3.4
	c1.48,0.32,2.83,1.36,4.13,2.22C215.72,450.64,215.77,451.41,216.03,452.11z"/>
<path class="st3" d="M213.36,290.02c-2.99,5-6.38,9.51-8.56,14.76c-0.52,1.25-1.28,2.41-1.81,3.67c-0.37,0.87-0.5,1.85-0.78,2.76
	c-1.65,5.31-2.77,10.7-2.51,16.32c0.05,0.93-0.19,1.87-0.21,2.81c-0.03,1.67,0.05,3.33,0,5c-0.01,0.61-0.24,1.21-0.38,1.82
	c-0.53-0.22-1.19-0.3-1.56-0.68c-1.43-1.47-2.76-3.04-4.13-4.56c-0.27-0.3-0.55-0.59-0.85-0.86c-1.44-1.3-2-3.01-2.17-4.85
	c-0.18-1.96-0.29-3.93-0.35-5.89c-0.06-2.12,0.46-4.07,1.44-5.99c0.75-1.46,0.9-3.21,1.54-4.74c0.96-2.29,2.12-4.5,3.19-6.74
	c0.78-1.65,1.81-3.06,3.56-3.84c0.31-0.15,0.44-0.67,0.7-0.98c0.43-0.56,0.82-1.2,1.37-1.6c2.54-1.82,4.85-4.01,7.82-5.16
	C210.89,290.81,212.13,290.44,213.36,290.02z"/>
<path class="st3" d="M380.51,308.77c-0.62,1.14-1.06,2.36-1.59,3.54c-0.06,0.14-0.13,0.31-0.24,0.37c-1.46,0.87-2.85,1.93-4.24,2.03
	c-1.35-2.24-2.52-4.22-3.72-6.17c-0.75-1.21-1.56-2.38-2.34-3.57c-1.04-1.57-1.94-3.26-3.15-4.69c-1.35-1.61-2.96-3-4.47-4.48
	c-0.1-0.11-0.27-0.18-0.32-0.31c-0.97-2.59-3.45-3.74-5.24-5.55c-1.33-1.34-3.03-2.09-4.42-3.28c-1.38-1.18-2.61-2.53-3.96-3.75
	c-0.79-0.73-1.68-1.34-2.75-2.18c3.4-1.06,6.51-1.46,9.71-0.59c0.93,0.25,1.9,0.43,2.86,0.47c5.22,0.24,9.9,2.01,14.36,4.66
	c2.06,1.22,4.06,2.45,5.85,4.06c1.67,1.51,2.7,3.25,3.04,5.46c0.14,0.84,0.46,1.66,0.66,2.5c0.42,1.77,0.87,3.54,1.19,5.33
	C382.14,304.81,381.56,306.83,380.51,308.77z"/>
<path class="st0" d="M245.44,545.12c-0.02,0.12-0.03,0.25-0.04,0.37c-0.6,0.07-1.2,0.2-1.8,0.19c-2.69-0.01-5.39,0.09-8.06-0.15
	c-2.58-0.23-5.13-0.78-7.66-1.3c-0.75-0.15-8.14-2.53-10.06-3.21c-1.57-0.55-3.13-1.13-4.66-1.77c-0.53-0.21-4.26-3.17-5.33-3.94
	c-1.5-1.07-2.5-2.37-3.73-3.55c-0.59-0.56-1.03-1.32-1.45-2.04c-0.52-0.87-1.19-1.65-1.72-2.44c-0.65-1-1.27-2.16-1.74-3.23
	c-1.04-2.39-1.45-5.04-2.07-7.6c-0.17-0.73-0.06-1.54-0.24-2.26c-0.6-2.39,0.94-4.04,2.19-5.6c0.52-0.64,2.13-0.5,3.25-0.56
	c2-0.12,4-0.15,5.99-0.17c0.48,0,1.01,0.07,1.44,0.26c2.45,1.12,4.83,2.39,7.32,3.39c3.39,1.36,6.84,2.56,10.3,3.75
	c3.45,1.19,6.91,2.42,10.6,2.73c0.17,0.02,0.33,0.2,0.35,0.22c-1.01,2.73-2.05,5.36-2.96,8.04c-0.51,1.51-0.74,3.09-0.26,4.71
	c0.61,2.07,1.02,4.21,1.75,6.24c0.32,0.89,1.22,1.57,1.87,2.32c1.14,1.3,2.69,2.19,3.57,3.81c0.31,0.56,1.32,0.75,2.01,1.12
	C244.68,544.66,245.06,544.9,245.44,545.12z"/>
<path class="st0" d="M412.11,270.18c-0.77-1.98-2.23-3.35-3.78-4.69c-3-2.59-5.79-5.46-8.99-7.77c-5.65-4.09-11.54-7.85-17.34-11.73
	c-3.35-2.25-7.19-3.38-10.96-4.59c-3.43-1.1-6.98-1.82-10.49-2.63c-3.46-0.8-6.94-1.13-10.43-0.15c-0.43,0.11-0.91-0.01-1.35,0.07
	c-1.99,0.36-4.05,0.54-5.94,1.2c-1.88,0.67-3.58,1.85-5.36,2.8c-0.82,0.44-1.62,0.95-2.48,1.29c-1.85,0.71-2.75,2.7-2.89,2.45
	c-0.06-0.1-0.56-0.01-0.8,0.1c-0.55,0.24-1.04,0.61-1.59,0.83c-1.01,0.41-1.52,1.95-3,1.35c-0.08-0.04-0.32,0.21-0.42,0.37
	c-0.71,1.15-1.5,2.15-2.62,3.04c-1.81,1.44-3.27,3.34-4.87,5.04c-0.52,0.55-0.95,1.22-1.55,1.64c-1.5,1.03-3.06,1.96-4.61,2.91
	c-0.98,0.61-2.17,0.95-2.57,2.25c-0.06,0.2-0.47,0.44-0.7,0.42c-1.36-0.11-2.77-0.1-4.05-0.5c-2.55-0.79-5.03-1.83-7.54-2.73
	c-3.11-1.12-6.23-2.14-9.6-2.01c-0.71,0.03-1.46,0.11-2.12-0.08c-3.33-0.93-6.69-1.44-10.16-1.07c-4.22,0.45-8.46,0.85-12.68,1.29
	c-0.61,0.07-1.21,0.23-1.8,0.37c-2.59,0.6-5.2,1.18-7.78,1.83c-1.6,0.42-3.26,0.77-4.75,1.48c-2.66,1.25-5.12,2.84-7.22,4.96
	c-0.41,0.41-1.3,0.43-1.98,0.45c-0.48,0.02-0.97-0.27-1.46-0.41c-1.33-0.35-1.93-1.17-1.51-2.47c0.3-0.92,0.02-1.64-0.45-2.25
	c-1.26-1.65-2.62-3.23-3.98-4.81c-0.66-0.76-1.28-1.64-2.12-2.11c-0.6-0.34-0.69-0.55-0.52-1.08c0.1-0.31,0.23-0.61,0.23-0.63
	c-1.77-0.86-3.37-1.65-4.99-2.42c-0.27-0.13-0.58-0.2-0.88-0.25c-2.65-0.46-5.29-0.96-7.95-1.34c-3.24-0.47-6.14,0.32-8.59,2.6
	c-0.32,0.29-0.98,0.55-1.33,0.42c-3-1.14-5.73-0.11-8.43,0.98c-1.11,0.44-2.07,1.4-3.19,1.59c-2.07,0.36-3.69,1.54-5.42,2.49
	c-2.3,1.27-4.48,2.78-6.66,4.27c-0.56,0.38-0.9,1.06-1.35,1.6c-0.28,0.33-0.56,0.93-0.86,0.94c-1.3,0.05-1.72,1.02-2.38,1.87
	c-1.04,1.33-1.76,2.81-2.6,4.26c-2.05,3.55-4.45,6.91-6.67,10.38c-0.56,0.88-0.95,1.88-1.41,2.82c-0.61,0.58-2.28,2.65-2.61,3.89
	c-0.18,0.69-0.36,1.24-1.04,1.7c-0.59,0.39-0.87,1.06-0.69,1.99c0.21,1.07-0.06,2.22-0.11,3.34c-0.12-0.01-0.24-0.01-0.36-0.01
	c-0.05-0.45-0.1-0.89-0.15-1.38c-0.21,0.09-0.36,0.11-0.38,0.17c-0.94,3.18-3.35,5.59-4.31,8.86c-0.84,2.85-2.09,5.57-2.44,8.59
	c-0.17,1.5-0.04,2.82,0.88,4.03c0.86,1.14,3.3,1.83,4.23,1.15c1.52-1.1,3.06-2.17,4.48-3.38c1.46-1.26,2.75-2.72,4.21-3.98
	c0.61-0.52,1.38-1.15,2.34-0.49c0.94,0.65,1.09,1.66,0.86,2.6c-0.17,0.75-0.61,1.68-1.22,2.03c-1.73,1.01-2.22,2.71-2.76,4.35
	c-0.67,2.06-1.21,4.18-1.59,6.32c-0.57,3.2-1.01,6.44-1.38,9.67c-0.22,1.85-0.2,3.72-0.29,5.65c0.32,0.18,0.67,0.36,1.01,0.55
	c-0.46,1.31,2.02,5.78,3.56,6.17c0.23-1.66,0.64-3.3,0.66-4.94c0.04-3.01,1.62-5.43,2.86-7.95c0.27-0.55,1.75-0.87,2.55-0.71
	c0.97,0.19,0.5,1.25,0.39,1.97c-0.17,1.09-0.41,2.17-0.53,3.27c-0.2,1.86-0.43,3.73-0.45,5.59c-0.03,2.81,0.82,5.58,0.12,8.46
	c-0.34,1.38-0.12,2.95,0.06,4.4c0.29,2.36,1.69,4.23,3.08,6.05c1.98,2.61,4.56,4.43,7.71,5.38c0.93,0.28,1.65,0.02,2.27-0.8
	c0.78-1.01,1.07-2.46,2.53-2.9c0.17-0.06,0.2-0.53,0.31-0.81c0.06-0.17,0.11-0.37,0.22-0.51c0.74-0.91,1.67-1.71,2.19-2.73
	c0.82-1.6,1.2-3.44,2.07-5.02c2.08-3.77,2.5-8,3.63-12.03c0.26-0.95-0.12-1.12-0.95-1.44c-1.88-0.75-3.7-1.66-5.45-2.68
	c-1.01-0.59-2.01-1.39-2.7-2.33c-0.69-0.96-1.02-2.19-1.46-3.32c-0.53-1.34-0.99-2.72-1.53-4.06c-0.73-1.79-0.77-3.64-0.58-5.54
	c0.04-0.45-0.17-1.31-0.38-1.35c-1.3-0.21-0.83-1.12-0.68-1.73c0.94-3.6,1.81-7.24,3-10.77c0.92-2.75,2.08-5.46,3.5-7.99
	c1.89-3.37,4.34-6.36,7.12-9.11c3.03-2.99,6.23-5.49,10.46-6.46c2.35-0.54,4.58-1.52,7.07-1.56c1.29-0.01,2.47-0.54,3.5-1.55
	c1.14-1.1,2.55-1.95,3.89-2.83c0.69-0.46,1.86,0.02,2.18,0.78c0.55,1.29,0.16,2.91-0.92,3.87c-0.8,0.71-1.64,1.38-2.39,2.13
	c-1.88,1.86-3.83,3.66-5.53,5.67c-2.1,2.48-4.06,5.1-5.94,7.75c-1.1,1.57-2.18,3.24-2.84,5.02c-1.2,3.22-2.07,6.56-3.09,9.84
	c-0.43,1.4-1.07,2.77-1.28,4.2c-0.38,2.66-0.56,5.35-0.74,8.03c-0.1,1.4-0.13,2.83,0,4.23c0.33,3.44,0.75,6.89-0.04,10.32
	c-0.62,2.72-1.29,5.43-2.1,8.11c-0.71,2.38-1.66,4.68-2.47,7.04c-1.2,3.5-2.33,7.02-3.57,10.51c-1.33,3.76-1.85,7.32,1.13,10.72
	c2.19,2.49,3.97,5.33,6.06,7.91c1.27,1.56,2.73,2.97,4.17,4.36c0.76,0.74,1.86,1.18,2.48,2c1.15,1.51,2.81,2.06,4.35,2.91
	c1.63,0.91,3.21,1.98,4.56,3.24c0.71,0.67,1.36,1.21,2.27,1.31c2.93,0.31,5.5,1.68,8.1,2.88c2.62,1.21,5.07,2.78,7.6,4.19
	c1.62,0.9,2.05,0.86,3.41-0.31c1.91-1.66,3.75-3.45,6.54-3.45c0.22,0,0.43-0.24,0.67-0.33c4.12-1.49,7.82-3.95,12.08-5.12
	c1.5-0.41,3-0.85,4.52-1.13c1.89-0.36,3.8-0.68,5.72-0.82c3.19-0.24,6.41-0.56,9.6-0.4c3.53,0.18,7.05,0.78,10.55,1.36
	c2.85,0.48,5.67,1.15,8.48,1.83c1.98,0.48,3.68,2.14,5.95,1.37c0.08-0.03,0.22,0,0.29,0.05c1.44,1.03,2.99,1.93,4.26,3.12
	c1.43,1.35,2.59,2.97,3.9,4.45c1.26,1.44,2.6,2.82,3.83,4.29c1.13,1.36,2.18,2.79,3.23,4.22c0.35,0.48,0.58,1.07,0.89,1.59
	c0.78,1.3,1.68,2.55,2.35,3.91c1.27,2.6,2.23,5.32,2.43,8.52c0.32-0.41,0.49-0.58,0.61-0.78c1.26-2.06,3.29-3.26,5.17-4.62
	c0.67-0.48,1.35-0.19,1.65,0.5c0.34,0.82,0.31,1.64-0.37,2.41c-1.27,1.43-2.44,2.94-3.65,4.42c-0.85,1.04-1.64,2.12-2.58,3.08
	c-1.15,1.18-2.49,2.19-3.64,3.38c-1.29,1.34-2.38,2.88-3.73,4.15c-0.7,0.64-1.77,0.91-2.71,1.26c-1.04,0.39-2.22,0.5-3.15,1.05
	c-2.54,1.53-4.78,3.72-8.13,3.16c-0.09-0.01-0.21,0.22-0.34,0.29c-1.99,1.05-4.01,1.86-6.27,2.38c-1.57,0.36-3.11,0.51-4.67,0.72
	c-2.03,0.29-4.05,0.65-6.07,1.01c-0.53,0.1-1.04,0.44-1.56,0.46c-2.93,0.11-5.87,0.14-8.8,0.25c-0.8,0.03-1.73,0.03-2.35,0.43
	c-1.17,0.76-2.33,0.45-3.53,0.44c-0.58-0.01-1.16,0.32-1.73,0.5c-0.57,0.17-1.13,0.37-1.71,0.53c-0.53,0.15-1.07,0.25-1.54,0.36
	c-0.07,1.48-0.13,2.71-0.19,3.94c0.08,0.56-0.25,1.15-0.15,1.66c0.65,3.38,4.24,6.59,7.7,6.93c2.28,0.22,4.57,0.32,6.84,0.61
	c0.52,0.07,1.39,0.7,1.38,1.04c-0.03,0.57-0.56,1.22-1.05,1.61c-0.34,0.27-0.97,0.2-1.48,0.22c-1.37,0.07-2.75,0.15-4.13,0.14
	c-2.76-0.02-5.4-0.61-7.87-1.89c-0.55-0.28-1.2-0.38-1.8-0.56c-0.13,0.68-0.32,1.35-0.39,2.03c-0.02,0.27,0.19,0.57,0.32,0.84
	c0.61,1.22,1.23,2.44,1.86,3.69c-0.03,0.02-0.22,0.15-0.24,0.16c0.77,0.31,1.61,0.64,2.44,1c0.65,0.27,1.27,0.77,1.93,0.84
	c3.19,0.37,6.4,0.78,9.52-0.5c0.45-0.18,1.01-0.18,1.51-0.13c1.2,0.12,1.58,1.15,0.95,2.16c-1.59,2.58-4.51,2.51-6.9,3.16
	c-1.88,0.51-4.11-0.07-6.15-0.41c-0.9-0.14-1.12,0.48-1.5,0.84c-0.15,0.15,0.19,0.95,0.44,1.36c1.08,1.7,2.81,2.72,4.49,3.58
	c2.91,1.47,5.96,2.68,9.01,3.84c1.13,0.43,2.43,0.43,3.65,0.62c1,0.16,2.07,0.2,2.47,1.52c1.48-0.44,2.91-0.7,4.33,0.1
	c0.46,0.26,1.04,0.38,1.58,0.39c4.26,0.13,8.56,0.54,12.8,0.23c4.8-0.34,7.63-0.61,14.26-2.48c1.31-0.37,8.84-2.16,11.17-2.97
	c-0.07-0.39,2.21-1.07,2.57-1.23c3.95-1.69,7.49-4.08,10.72-6.86c2.99-2.58,5.81-5.37,8.59-8.19c1.6-1.61,3.12-3.36,4.4-5.23
	c1.87-2.72,3.54-5.57,5.19-8.44c0.69-1.21,1.25-2.56,1.58-3.92c0.22-0.9,0.65-1.26,1.4-1.26c0.81,0,1.56,0.36,1.54,1.32
	c-0.03,0.91-0.08,1.86-0.38,2.7c-1.08,3.1-2.74,5.99-4.38,8.77c-1.85,3.17-4.58,5.82-6.97,8.65c-0.96,1.14-2.03,2.18-3.07,3.27
	c-0.7-0.41-2.95,2.01-3.31,2.81c-0.94,2.09-2.76,2.94-4.51,3.99c-1.07,0.64-2.07,1.41-3.23,2.21c-0.81-0.46-2.23,1.7-2.59,1.91
	c-0.81,0.49-1.78,0.77-2.52,1.34c-2.65,2.03-5.99,2.25-8.93,3.53c-2.47,1.07-5.14,1.75-7.79,2.29c-3.37,0.69-6.78,1.23-10.2,1.51
	c-3.01,0.24-6.06,0.05-9,0.05c-1.23,0.93-2.47,1.86-3.7,2.81c-0.27,0.22-0.6,0.47-0.7,0.77c-0.44,1.4-1.67,1.96-2.74,2.68
	c-1.08,0.72-2.33,1.25-3.22,2.14c-1.76,1.79-4,2.72-6.15,3.77c-1.53,0.74-3.36,0.82-4.98,1.42c-2.7,1-5.33,2.18-7.99,3.27
	c-0.41,0.17-0.85,0.36-1.28,0.37c-0.99,0.01-1.76,0.36-1.99,0.96c-1.54,0-2.84-0.12-4.1,0.03c-0.98,0.12-1.97,0.95-2.85,0.81
	c-2.79-0.43-5.35,1.25-8.11,0.67c-0.18-0.04-0.39,0.09-0.6,0.1c-2.71,0.13-5.42,0.24-8.21,0.37c0.12-0.72-2.24,2.13-3.18,3.53
	c-1.63,2.41-0.57,5.14,0.04,7.72c0.04,0.16-0.86,0.46-0.26,1.37c0.16,0.25,0.24,0.56,0.37,0.84c0.24,0.52,0.45,1.06,0.75,1.55
	c0.33,0.55,0.77,1.04,1.11,1.59c0.48,0.75,0.82,1.61,1.39,2.29c0.69,0.83,1.51,1.55,2.34,2.24c4.36,3.62,9.36,6.02,14.73,7.68
	c1.43,0.44,2.96,0.56,4.4,0.99c1.9,0.55,3.72,1.42,5.63,1.88c2.32,0.54,4.7,0.83,7.07,1.15c0.41,0.06,7.65,1.04,8.34,1.14
	c2.57,0.37,5.12,0.75,7.69,1.1c2.44,0.33,4.89,0.79,7.34,0.9c2.12,0.09,4.25-0.23,6.38-0.34c1.46-0.09,2.92-0.11,4.38-0.21
	c1.27-0.08,2.53-0.29,3.8-0.33c2.77-0.09,5.56,0.07,8.32-0.19c3.14-0.3,6.25-0.89,9.36-1.43c1.47-0.25,2.91-0.66,4.36-1.03
	c2.08-0.52,4.15-1.46,6.24-1.51c3.42-0.08,6.43-1.43,9.5-2.47c4.11-1.39,8.02-3.38,11.99-5.19c2.02-0.92,3.98-1.98,6.22-3.11
	c-0.63-0.17,2.1-1.38,2.35-1.64c1.02-1.05,1.95-2.2,2.92-3.31c0.06-0.09,0.11-0.17,0.15-0.27l0.1,0.01l0.1-0.02
	c0.02-0.15,0.03-0.3,0.04-0.44c-0.21-1.7,0.5-2.71,2.2-3.07c0.21-0.05,0.47-0.62,0.43-0.9c-0.11-0.78,0.21-1.14,0.88-1.38
	c0.22-0.09,0.4-0.33,0.58-0.52c0.52-0.56,1.04-1.12,1.73-1.87c0.01-0.15-0.11-0.99,0.13-1.12c1.71-0.88,1.51-2.96,2.91-4.22
	c1.67-1.5,2.54-3.95,3.58-6.07c1.23-2.51,2.21-5.14,3.41-7.66c0.96-2.06,1.99-4.06,1.75-6.45c-0.04-0.38,0.41-0.82,0.64-1.24
	c-0.09-0.18-0.42-0.55-0.36-0.82c0.11-0.41,0.44-0.85,1.03-0.38c0.05,0.04,0.67-0.4,0.76-0.71c0.63-2.09,1.22-4.19,1.76-6.31
	c0.36-1.37,0.64-2.76,0.92-4.14c0.23-1.09,0.47-2.18,0.6-3.28c0.24-2.02,0.41-4.04,0.6-6.06c0.25-2.45,0.63-4.89,0.69-7.35
	c0.07-2.47-0.18-4.94-0.31-7.42c-0.15-2.89-0.26-5.79-0.49-8.67c-0.15-1.85-0.41-3.7-0.78-5.51c-0.39-1.94-0.97-3.84-1.47-5.75
	c-0.73-2.84-1.38-5.7-2.19-8.51c-0.83-2.88-1.63-5.79-2.79-8.55c-1.97-4.68-4.17-9.27-6.38-13.85c-0.9-1.87-2.07-3.62-3.17-5.4
	c-1.84-2.98-3.6-6.03-5.63-8.88c-1.95-2.73-4.12-5.31-6.36-7.8c-1.22-1.37-2.79-2.42-4.11-3.54c-0.81,0.57-1.48,1.01-2.11,1.51
	c-0.83,0.64-1.73,1.24-2.41,2.02c-2.42,2.81-4.65,5.77-7.61,8.07c-0.75,0.59-1.32,1.4-2.05,2.03c-1.1,0.96-2.14,2.15-3.44,2.7
	c-2.62,1.12-4.61,3.07-6.82,4.72c-2.34,1.74-4.73,3.31-7.49,4.3c-1.38,0.49-2.93,0.79-4.07,1.64c-1.34,1-2.71,1.01-4.18,1
	c-0.96-0.02-1.95,0.06-2.89-0.12c-0.42-0.07-0.83-0.62-1.06-1.06c-0.07-0.12,0.48-0.72,0.84-0.88c2.02-0.87,4.05-1.71,6.11-2.5
	c2.22-0.86,4.6-1.4,6.67-2.53c2.16-1.18,4.18-2.73,6.01-4.39c3.35-3.04,6.54-6.26,9.74-9.45c0.97-0.96,1.71-2.14,2.63-3.16
	c3.04-3.34,6.01-6.67,8.45-10.54c2.64-4.2,4.94-8.51,6.82-13.07c0.36-0.88,0.71-1.77,0.99-2.68c0.63-2.09,1.19-4.21,1.82-6.3
	c0.15-0.47,0.76-0.94,0.69-1.33c-0.17-0.91,0.28-1.51,0.61-2.25c0.4-0.91,0.72-1.92,0.76-2.89c0.09-2.42-0.01-4.84,0-7.26
	c0-2.94,1.15-5.98-0.74-8.77c-0.11-0.16-0.13-0.37-0.19-0.57c-0.75-2.68-1.45-5.37-2.25-8.03c-0.6-1.99-1.27-3.95-1.99-5.89
	c-0.85-2.25-3.33-7.17-3.19-7.73c-0.82-0.43-1.85-0.68-1.46-1.97c0.05-0.17-0.2-0.44-0.34-0.65c-0.8-1.17-1.66-2.31-2.39-3.53
	c-0.49-0.82-1-1.3-1.72-0.91c-0.15-0.63-0.11-1.29-0.42-1.67c-1.55-1.96-3.14-3.89-4.8-5.76c-1.31-1.46-2.7-2.87-4.14-4.22
	c-1.47-1.38-3.04-2.65-4.56-3.99c-2.55-2.23-5.06-4.52-7.66-6.7c-1.82-1.53-4.34-1.88-6.13-3.52c-0.64-0.57-1.47-0.94-2.05-1.56
	c-0.33-0.35-0.55-1.08-0.43-1.54c0.4-1.5,0.98-1.78,2.58-1.36c0.56,0.15,1.14,0.36,1.63,0.68c1.42,0.92,2.95,1.44,4.62,1.11
	c1.34-0.26,2.63-0.89,3.97-1.03c2.77-0.28,5.6-0.64,8.35-0.41c3.17,0.27,6.29,1.14,9.42,1.75c0.2,0.04,0.47,0.03,0.58,0.16
	c1.57,1.71,3.51-0.03,5.08,0.83c0.11-0.96,3.73,1.38,3.93,2.04c0.19,0.61,2.15,0.89,2.38,1.22c0.99,1.41,2.25,2.52,3.53,3.65
	c2.03,1.8,3.71,3.91,4.63,6.5c0.86,2.41,2.05,4.83,2.24,7.31c0.15,1.82,1.02,3.78,0.07,5.69c-0.2,0.4-0.13,1.02,0.02,1.47
	c0.52,1.55-0.13,2.78-0.9,4.01c-0.23,0.38-0.7,0.8-0.64,1.13c0.16,0.99-0.43,1.49-0.99,2.08c-0.59,0.63-1.23,1.25-1.66,1.99
	c-1.23,2.14-3.15,3.21-5.42,3.87c-0.51,0.15,0.7,1.75,0.6,3.09c0,0.19,1.23,5.72,3.35,7.66c0.17,0.16,0.21,0.63,0.12,0.88
	c-0.85,2.33,0.78,4.25,1.16,6.36c0.34,1.91-0.04,3.77,0.23,5.64c0.02,0.1-0.14,0.22-0.24,0.37c-0.26-0.28,0.23,3.28,0.16,5.57
	c0.78-0.28,1.53-0.33,1.97-0.72c1.33-1.17,2.72-2.34,3.72-3.77c0.61-0.88,1.08-1,1.9-0.67c0.38-0.56,0.71-1.07,1.03-1.56
	c-0.28-0.53-0.64-0.99-0.78-1.51c-0.15-0.57-0.11-1.19-0.16-1.79c0.57,0.06,1.19-0.01,1.69,0.2c1.05,0.42,2.12,1.11,3.14,0.22
	c0.81-0.7,1.6-1.59,2.02-2.56c0.56-1.28,0.87-2.69,1.05-4.08c0.41-3.12,0.79-6.26-1.09-9.15c-0.36-0.55-0.34-1.44,0.39-1.74
	c0.63-0.25,1.79-0.43,2.05-0.11c1.44,1.77,3.53,0.91,5.36,1.67c-1.05-2.24,0.38-3.31,1.64-4.41c0.72,0.34,1.38,0.66,2.11,1.01
	c1.64-3.63,3-7.11,2.63-11.01c-0.07-0.75-0.06-1.54,0.1-2.28c0.87-3.98,0.71-8.02,0.29-11.98c-0.43-4.12-1.46-8.18-2.35-12.24
	c-0.22-0.99-0.76-1.98-1.37-2.81c-1.83-2.45-1.21-4.41,1.67-5.58c1.12-0.46,2.03-1.43,3.06-2.15
	C412.45,271.52,412.41,270.97,412.11,270.18z M248.08,333c-1.02,2.85-2.27,5.57-5.04,7.39c-1.93,1.26-3.93,1.99-6.12,2.42
	c-0.21,0.04-0.43,0.01-0.61,0.1c-4.1,2.02-7.96,0.66-11.82-0.82c-0.14-0.05-0.29-0.12-0.38-0.23c-1.94-2.1-4.04-4.1-5.75-6.38
	c-0.89-1.19-1.18-2.86-1.62-4.35c-0.45-1.56-0.7-3.17-1.16-4.72c-0.3-1.02,0.07-1.62,0.78-2.26c0.7-0.64,1.21-1.13,2.34-0.64
	c2.55,1.11,2.62,1.02,2.25,3.76c-0.24,1.83,0.24,3.55,1.27,4.92c1.45,1.92,3.17,3.66,4.93,5.31c0.89,0.83,2.13,1.3,3.3,1.99
	c0.73-1.04,2.24-0.93,3.56-1.18c2.99-0.56,5.3-1.77,6.89-4.66c1.54-2.8,2.23-5.7,2.62-8.77c0.12-0.94,0.31-1.88,0.5-2.81
	c0.28-1.33,1.35-1.79,2.37-0.92c0.63,0.54,1.37,1.31,1.46,2.05C248.26,326.45,249.23,329.77,248.08,333z M300.1,374.4
	c-2.46,1.36-4.85,2.92-7.44,3.96c-3.08,1.22-5.85,3.11-9.11,3.95c-2.2,0.56-4.24,1.71-6.43,2.32c-5.27,1.46-10.59,2.75-16.1,1.46
	c-1.96-0.46-3.92-0.97-5.82-1.64c-1.67-0.59-2.27-2.27-2.82-3.72c-0.2-0.51,0.57-1.52,1.11-2.11c0.24-0.27,1.14-0.27,1.51-0.04
	c3.48,2.26,7.32,3.05,11.44,2.82c0-1.22-0.02-2.51,0.01-3.79c0.02-0.86-0.61-0.96-1.2-1.12c-2.4-0.67-4.82-1.27-7.18-2.03
	c-0.79-0.26-1.52-0.87-2.14-1.46c-0.98-0.94-1.84-2.01-2.76-3.02c-1.76-1.93-2.14-4.52-3.23-6.76c-0.28-0.58-0.21-1.33-0.29-2
	c0.08-0.12,0.55-2.82,0.03-4.14c-0.47-1.19,0.29-3.91,0.54-3.83c0.1-0.31,0.28-0.59,0.27-0.88c0-0.74,0.4-1.32,0.05-2.28
	c-0.42-1.13,0.22-2.68,0.51-4.03c0.22-1.06,0.68-2.07,0.92-3.13c0.36-1.61,0.62-3.24,0.93-4.86c-0.01-0.1,0.03-0.18,0.09-0.25
	l0.01-0.01v-0.01c-0.03-0.31,1.6-3.94,2.27-5.51c0.31-0.72,1.45-2.29,1.65-2.53c1.12-1.37,6.36-5.47,7.35-6.02
	c2.12-1.16,4.25-1.25,6.5-0.16c2.85,1.38,5.9,2.61,7.77,5.23c2.5,3.5,4.71,7.16,5.62,11.55c1.27,6.12,1.73,12.27,1.86,18.48
	c0.02,1.06,0.2,2.11-0.55,3.02c-0.15,0.18-0.24,0.51-0.19,0.72c0.29,1.23-0.46,2.04-1.05,2.94c-0.35,0.55-0.61,1.19-0.78,1.82
	c-0.78,2.95-2.85,4.73-5.37,6.13c-0.67,0.37-1.38,0.7-1.95,1.18c-0.9,0.76-1.73,1.47-3.05,1.47c-0.76,0-1.52,0.5-2.24,0.77
	c0,1.06,0.01,2.07,0,3.08c-0.01,1.32,0.43,1.88,1.71,1.59c2.96-0.67,5.9-1.47,8.8-2.34c2.03-0.61,4.01-1.4,5.99-2.18
	c0.54-0.21,0.94-0.77,1.47-0.99c3.44-1.45,6.9-2.88,10.37-4.26c0.68-0.26,0.73-0.13,1.04,0.8c0.23-0.21,0.45-0.4,0.71-0.63
	C301.65,373.22,300.99,373.9,300.1,374.4z M333.35,315.2c0.19-0.48,0.8-1.02,1.29-1.11c0.4-0.07,1.09,0.36,1.35,0.76
	c0.41,0.61,0.73,1.38,0.77,2.11c0.12,2.14,0.21,4.35-1.04,6.23c-0.86,1.29-1.47,2.65-1.92,4.11c-0.06,0.22-0.33,0.42-0.55,0.52
	c-0.49,0.24-1.11,1.11-0.82,1.3c-1.52,2.05-3.3,3.77-5.46,5.15c-3.08,1.97-6.4,3.1-10.01,3.47c-1.66,0.17-3.31,0.46-4.97,0.59
	c-0.55,0.04-1.15-0.22-1.68-0.44c-0.86-0.36-1.68-0.8-2.51-1.21c-0.11,0.16-2.85-1.3-4-1.56c-0.38-0.09-0.9-0.18-1.08-0.46
	c-0.97-1.51-2.54-1.94-4.09-2.45l-0.08-0.01l-0.01-0.09c-0.91-1.51-1.81-3.03-2.71-4.55c-0.1-0.17-0.19-0.35-0.25-0.53
	c-0.5-1.54-1.09-3.07-1.45-4.64c-0.38-1.66,1.63-4,3.35-4.07c0.95-0.03,1.7,0.28,1.99,1.3c0.25,0.88,0.59,1.74,0.78,2.64
	c0.36,1.68,1.12,3.07,2.5,4.14c0.38,0.3,0.59,0.81,0.87,1.23c1.37,2.08,3.56,3.13,5.73,3.97c1.22,0.47,2.78,0.04,4.18,0.12
	c0.98,0.05,1.95,0.26,2.93,0.4c0.25,0.03,0.56,0.19,0.73,0.09c1.92-1.11,4.31-1.05,6.07-2.59c1.36-1.19,2.92-2.16,4.35-3.27
	c2.3-1.78,3.43-4.33,4.43-6.94C332.56,318.04,332.82,316.57,333.35,315.2z"/>
<path class="st4" d="M320.63,434.3c0,0.3-0.29,0.62-0.51,0.88c-2.08,2.51-4.65,4.35-7.6,5.73c-1.33,0.62-2.56,1.45-3.88,2.11
	c-0.51,0.26-1.13,0.32-1.7,0.48c-0.28,0.08-0.74,0.14-0.78,0.29c-0.48,1.85-2.2,1.76-3.51,2.28c-0.88,0.36-1.88,0.45-2.71,0.88
	c-3.14,1.61-6.65,1.4-9.97,2.11c-4.13,0.89-8.34,0.79-12.52,1.07c-3.11,0.21-6.21,0.92-9.27,1.59c-2.28,0.5-4.14,1.9-5.86,3.43
	c-0.14,0.13-0.28,0.29-0.33,0.46c-0.3,1.01-0.54,2.03-0.87,3.03c-0.43,1.27-0.67,2.42-0.3,3.87c0.44,1.71,0.16,3.61,0.09,5.43
	c-0.05,1.06-0.29,2.11-0.47,3.16c-0.27,1.56,0.3,2.92,1.04,4.2c0.65,1.12,1.46,2.15,2.35,3.43c-0.85,0.1-0.24,1.69-0.19,2.61
	c0.16,2.57,0.95,4.91,2.65,6.96c2.94,3.53,7.26,4.54,11.16,6.34c0.77,0.36,1.68,0.46,2.38,0.91c1.84,1.18,4.03,1.26,5.96,2.12
	c2.2,0.99,4.54,1.3,7.05,1.63c-1.84,1.28-3.68,2.56-5.5,3.85c-1.16,0.82-2.27,1.7-3.45,2.5c-0.86,0.59-1.76,1.11-2.69,1.6
	c-3.21,1.68-6.48,3.26-10.09,3.91c-0.26,0.05-9.01,1.41-9.01,1.52c-0.3,0.24-0.56,0.6-0.9,0.69c-0.48,0.13-1.03,0.16-1.51,0.05
	c-1.37-0.32-2.55,0.23-3.84,0.49c-1.48,0.31-3.13-0.22-4.89-0.41c-0.85,1.03-2.41,1.38-3.89,1.36c-1.91-0.03-3.81-0.46-5.7-0.79
	c-2.63-0.47-5.27-0.94-7.87-1.57c-0.99-0.23-1.87-0.9-2.79-1.38c-0.08-0.04-0.14-0.23-0.16-0.23c-1.59,0.57-2.77-0.65-4.15-0.97
	c-2.37-0.54-4.71-1.23-7.02-1.98c-1.53-0.49-3-1.18-4.48-1.82c-2.57-1.13-5.05-2.51-7.89-2.95c-0.57-0.09-1.08-0.56-1.65-0.76
	c-0.92-0.33-1.9-0.86-2.84-1.14c-0.42-0.13-3.05-2.77-4.68-3.98c-1.78-1.33-3.47-2.77-5.2-4.16c-0.08-0.06-0.19-0.09-0.26-0.16
	c-2.09-2.02-4.25-3.97-6.24-6.08c-0.79-0.84-0.93-1.71,0.31-1.71c1.83-0.02,3.66-0.09,5.49,0c0.41,0.01,3.52-0.47,3.52-1.31
	c-0.07-0.13-2.59-4-2.72-4.34c-0.77-2.02-1.6-4.04-2.17-6.12c-0.58-2.14-1.01-4.35-1.25-6.55c-0.13-1.25,0.26-2.55,0.43-4
	c0.68,0.39,1.07,0.61,1.45,0.83c4.07,2.37,8.49,3.78,13.04,4.8c0.72,0.16,1.5,0.07,2.26,0.12c0.49,0.03,1.02-0.01,1.47,0.17
	c2.2,0.87,3.44,0.62,4.98-1.15c0.39-0.45,0.63-1.07,1.08-1.44c0.39-0.33,0.57-1.98,1.05-2.84c0.58-1.02,1.06-2.09,1.48-3.18
	c0.52-1.34,1.83-4.77,2.36-6.02c0.95-2.22,0.22-4.42,0.05-6.62c-0.02-0.32-0.54-0.74-0.92-0.88c-1.84-0.69-3.73-1.25-5.56-1.97
	c-2.83-1.11-5.63-2.3-8.42-3.5c-0.39-0.17-0.62-0.66-0.98-0.92c-0.98-0.69-2.67-1.19-2.86-2.05c-0.34-1.49-0.03-3.27,0.49-4.77
	c0.74-2.18,1.93-4.1,3.55-5.9c2.19-2.43,3.77-5.38,5.63-8.11c0.74-1.09,1.49-2.17,2.27-3.23c0.2-0.27,0.53-0.46,0.83-0.64
	c0.44-0.27,1.23-0.43,1.31-0.76c0.17-0.8,0.27-1.79-0.06-2.49c-0.41-0.86-1.26-1.52-1.96-2.23c-1.32-1.35-2.67-2.66-3.98-4.01
	c-0.18-0.19-0.16-0.57-0.33-1.23c1.79-0.13,3.49-0.49,5.13-0.3c1.76,0.21,3.4-0.22,5.1-0.26c1.6-0.03,3.05,0.32,3.8,1.25
	c1.02,0.16,1.74,0.12,2.31,0.39c2.23,1.05,4.4,2.24,6.63,3.29c1.17,0.55,2.25,1.11,2.94,2.29c0.61,1.01,1.42,1.76,2.78,1.19
	c0.29-0.11,0.69,0.08,1.03,0.08c1.07,0.02,2.14,0.01,2.92,0.01c0.5,0.45,0.92,0.83,1.24,1.11c0.39-1.55,0.83-2.84,1.03-4.16
	c0.18-1.18,0.88-1.68,1.91-1.83c3.05-0.47,5.74-1.97,8.56-3.06c2.63-1.01,5.15-2.33,7.8-3.29c1.6-0.58,3.34-0.82,5.04-1.04
	c2.81-0.37,5.64-0.82,8.46-0.85c2.82-0.03,5.65,0.35,8.47,0.65c2.56,0.28,5.11,0.69,7.66,1.04c2.76,0.38,5.35,1.28,7.66,2.82
	c2.36,1.57,4.68,3.23,6.91,5c1.73,1.38,3.29,2.99,4.93,4.48c0.15,0.14,0.32,0.24,0.5,0.34c1.35,0.77,1.54,1.08,1.54,2.64
	c2.14,1.14,3.34,3.12,4.54,5.1c1.58,2.61,3.27,5.2,3.61,8.34C320.63,431.47,320.64,432.89,320.63,434.3z"/>
<path d="M300.93,371.96c-0.26,0.23-0.48,0.42-0.71,0.63c-0.31-0.93-0.36-1.06-1.04-0.8c-3.47,1.38-6.93,2.81-10.37,4.26
	c-0.53,0.22-0.93,0.78-1.47,0.99c-1.98,0.78-3.96,1.57-5.99,2.18c-2.9,0.87-5.84,1.67-8.8,2.34c-1.28,0.29-1.72-0.27-1.71-1.59
	c0.01-1.01,0-2.02,0-3.08c0.72-0.27,1.48-0.77,2.24-0.77c1.32,0,2.15-0.71,3.05-1.47c0.57-0.48,1.28-0.81,1.95-1.18
	c2.52-1.4,4.59-3.18,5.37-6.13c0.17-0.63,0.43-1.27,0.78-1.82c0.59-0.9,1.34-1.71,1.05-2.94c-0.05-0.21,0.04-0.54,0.19-0.72
	c0.75-0.91,0.57-1.96,0.55-3.02c-0.13-6.21-0.59-12.36-1.86-18.48c-0.91-4.39-3.12-8.05-5.62-11.55c-1.87-2.62-4.92-3.85-7.77-5.23
	c-2.25-1.09-4.38-1-6.5,0.16c-0.99,0.55-6.23,4.65-7.35,6.02c-0.2,0.24-1.34,1.81-1.65,2.53c-0.67,1.57-2.3,5.2-2.27,5.51v0.01
	l-0.01,0.01c-0.02,0.09-0.05,0.16-0.09,0.25c-0.31,1.62-0.57,3.25-0.93,4.86c-0.24,1.06-0.7,2.07-0.92,3.13
	c-0.29,1.35-0.93,2.9-0.51,4.03c0.35,0.96-0.05,1.54-0.05,2.28c0.01,0.29-0.17,0.57-0.27,0.88c-0.25-0.08-1.01,2.64-0.54,3.83
	c0.52,1.32,0.05,4.02-0.03,4.14c0.08,0.67,0.01,1.42,0.29,2c1.09,2.24,1.47,4.83,3.23,6.76c0.92,1.01,1.78,2.08,2.76,3.02
	c0.62,0.59,1.35,1.2,2.14,1.46c2.36,0.76,4.78,1.36,7.18,2.03c0.59,0.16,1.22,0.26,1.2,1.12c-0.03,1.28-0.01,2.57-0.01,3.79
	c-4.12,0.23-7.96-0.56-11.44-2.82c-0.37-0.23-1.27-0.23-1.51,0.04c-0.54,0.59-1.31,1.6-1.11,2.11c0.55,1.45,1.15,3.13,2.82,3.72
	c1.9,0.67,3.86,1.18,5.82,1.64c5.51,1.29,10.83,0,16.1-1.46c2.19-0.61,4.23-1.76,6.43-2.32c3.26-0.84,6.03-2.73,9.11-3.95
	c2.59-1.04,4.98-2.6,7.44-3.96C300.99,373.9,301.65,373.22,300.93,371.96z M264.71,372.43c-0.19-0.11-0.46-0.07-0.65-0.1
	c-0.06-0.56-4.33-0.7-5.13-2.04c-0.27-0.45-0.68-0.83-1.06-1.2c-2.24-2.18-3.69-4.75-3.54-7.94c0.17-3.71,0.41-7.42,0.87-11.11
	c0.3-2.35,1.05-4.64,1.58-6.97c0.59-2.62,1.05-5.29,1.79-7.87c0.78-2.67,1.78-5.28,4.59-6.62c0.54-0.26,0.98-0.73,1.5-1.05
	c0.97-0.6,1.99-0.98,3.14-0.4c0.36,0.18,0.77,0.26,1.17,0.34c4.73,1,7.51,4.04,8.97,8.49c0.03,0.09-0.02,0.25,0.03,0.29
	c1.97,1.31,1.95,3.52,2.41,5.47c0.65,2.69,1.24,5.39,1.61,8.13c0.31,2.39,0.41,4.84,0.37,7.26c-0.04,1.85-0.19,3.78-0.75,5.52
	c-0.66,2.06-1.81,3.96-2.75,5.92c-0.06,0.13-0.16,0.31-0.28,0.35c-2.92,0.89-4.6,4.03-7.95,4.24
	C268.58,373.27,266.6,373.46,264.71,372.43z"/>
<path class="st5" d="M282.36,357.11c-0.04,1.85-0.19,3.78-0.75,5.52c-0.66,2.06-1.81,3.96-2.75,5.92c-0.06,0.13-0.16,0.31-0.28,0.35
	c-2.92,0.89-4.6,4.03-7.95,4.24c-2.05,0.13-4.03,0.32-5.92-0.71c-0.19-0.11-0.46-0.07-0.65-0.1c-0.06-0.56-4.33-0.7-5.13-2.04
	c-0.27-0.45-0.68-0.83-1.06-1.2c-2.24-2.18-3.69-4.75-3.54-7.94c0.17-3.71,0.41-7.42,0.87-11.11c0.3-2.35,1.05-4.64,1.58-6.97
	c0.59-2.62,1.05-5.29,1.79-7.87c0.78-2.67,1.78-5.28,4.59-6.62c0.54-0.26,0.98-0.73,1.5-1.05c0.97-0.6,1.99-0.98,3.14-0.4
	c0.36,0.18,0.77,0.26,1.17,0.34c4.73,1,7.51,4.04,8.97,8.49c0.03,0.09-0.02,0.25,0.03,0.29c1.97,1.31,1.95,3.52,2.41,5.47
	c0.65,2.69,1.24,5.39,1.61,8.13C282.3,352.24,282.4,354.69,282.36,357.11z"/>
<path d="M335.72,323.19c-0.86,1.29-1.47,2.65-1.92,4.11c-0.06,0.22-0.33,0.42-0.55,0.52c-0.49,0.24-1.11,1.11-0.82,1.3
	c-1.52,2.05-3.3,3.77-5.46,5.15c-3.08,1.97-6.4,3.1-10.01,3.47c-1.66,0.17-3.31,0.46-4.97,0.59c-0.55,0.04-1.15-0.22-1.68-0.44
	c-0.86-0.36-1.68-0.8-2.51-1.21c-0.11,0.16-2.85-1.3-4-1.56c-0.38-0.09-0.9-0.18-1.08-0.46c-0.97-1.51-2.54-1.94-4.09-2.45
	l-0.09-0.1c-0.91-1.51-1.81-3.03-2.71-4.55c-0.1-0.17-0.19-0.35-0.25-0.53c-0.5-1.54-1.09-3.07-1.45-4.64
	c-0.38-1.66,1.63-4,3.35-4.07c0.95-0.03,1.7,0.28,1.99,1.3c0.25,0.88,0.59,1.74,0.78,2.64c0.36,1.68,1.12,3.07,2.5,4.14
	c0.38,0.3,0.59,0.81,0.87,1.23c1.37,2.08,3.56,3.13,5.73,3.97c1.22,0.47,2.78,0.04,4.18,0.12c0.98,0.05,1.95,0.26,2.93,0.4
	c0.25,0.03,0.56,0.19,0.73,0.09c1.92-1.11,4.31-1.05,6.07-2.59c1.36-1.19,2.92-2.16,4.35-3.27c2.3-1.78,3.43-4.33,4.43-6.94
	c0.52-1.37,0.78-2.84,1.31-4.21c0.19-0.48,0.8-1.02,1.29-1.11c0.4-0.07,1.09,0.36,1.35,0.76c0.41,0.61,0.73,1.38,0.77,2.11
	C336.88,319.1,336.97,321.31,335.72,323.19z"/>
<path d="M248.08,333c-1.02,2.85-2.27,5.57-5.04,7.39c-1.93,1.26-3.93,1.99-6.12,2.42c-0.21,0.04-0.43,0.01-0.61,0.1
	c-4.1,2.02-7.96,0.66-11.82-0.82c-0.14-0.05-0.29-0.12-0.38-0.23c-1.94-2.1-4.04-4.1-5.75-6.38c-0.89-1.19-1.18-2.86-1.62-4.35
	c-0.45-1.56-0.7-3.17-1.16-4.72c-0.3-1.02,0.07-1.62,0.78-2.26c0.7-0.64,1.21-1.13,2.34-0.64c2.55,1.11,2.62,1.02,2.25,3.76
	c-0.24,1.83,0.24,3.55,1.27,4.92c1.45,1.92,3.17,3.66,4.93,5.31c0.89,0.83,2.13,1.3,3.3,1.99c0.73-1.04,2.24-0.93,3.56-1.18
	c2.99-0.56,5.3-1.77,6.89-4.66c1.54-2.8,2.23-5.7,2.62-8.77c0.12-0.94,0.31-1.88,0.5-2.81c0.28-1.33,1.35-1.79,2.37-0.92
	c0.63,0.54,1.37,1.31,1.46,2.05C248.26,326.45,249.23,329.77,248.08,333z"/>
<polygon points="298.63,332.21 298.55,332.2 298.54,332.11 "/>
<path d="M252.99,337.82c-0.02,0.09-0.05,0.16-0.09,0.25C252.89,337.97,252.93,337.89,252.99,337.82z"/>
</svg>
