<svg id="Layer_1" enable-background="new 0 0 512 512" height="512" viewBox="0 0 512 512" width="512" xmlns="http://www.w3.org/2000/svg"><g><path d="m512 164.26c0-56.009-46.653-101.576-103.999-101.576-33.497 0-63.34 15.552-82.374 39.647-19.959-8.088-43.169-13.114-70.049-13.114-26.593 0-49.596 4.918-69.41 12.854-19.042-23.948-48.793-39.388-82.17-39.388-57.345.001-103.998 45.568-103.998 101.577 0 42.274 26.581 78.594 64.273 93.868-3.897 16.937-5.59 32.28-5.59 44.388 0 39.1 16.282 74.865 45.847 100.706 34.993 30.585 85.813 46.094 151.049 46.094s116.057-15.508 151.049-46.094c29.565-25.841 45.847-61.606 45.847-100.706 0-12.035-1.671-27.265-5.519-44.08 38.101-15.089 65.044-51.614 65.044-94.176zm-89.524 138.256c0 56.465-43.844 116.8-166.896 116.8s-166.896-60.335-166.896-116.8c0-29.291 11.773-75.948 38.074-114.156 21.713-31.542 61.688-69.143 128.822-69.143s107.109 37.6 128.822 69.143c26.301 38.208 38.074 84.866 38.074 114.156zm-392.476-138.256c0-39.467 33.196-71.576 73.999-71.576 21.635 0 41.129 9.029 54.672 23.394-25.265 15.871-43.687 36.475-56.625 55.271-12.932 18.786-22.49 38.67-29.292 57.772-25.228-11.416-42.754-36.19-42.754-64.861zm408.52 65.179c-6.81-19.199-16.405-39.2-29.408-58.09-12.847-18.663-31.101-39.11-56.092-54.934 13.555-14.559 33.179-23.731 54.981-23.731 40.803 0 73.999 32.109 73.999 71.576 0 28.945-17.865 53.913-43.48 65.179z"/><path d="m292.219 326.177c7.717-12.915 11.967-29.771 11.967-47.464s-4.25-34.55-11.967-47.465c-9.03-15.112-22.384-23.779-36.64-23.779s-27.61 8.667-36.64 23.78c-7.716 12.915-11.966 29.771-11.966 47.464s4.25 34.549 11.966 47.464c5.367 8.982 12.268 15.665 19.972 19.627-2.857 6.179-9.098 10.486-16.341 10.486-8.284 0-15 6.716-15 15s6.716 15 15 15c12.779 0 24.398-5.028 33.01-13.198 8.611 8.17 20.231 13.198 33.01 13.198 8.284 0 15-6.716 15-15s-6.716-15-15-15c-7.243 0-13.484-4.307-16.341-10.486 7.702-3.962 14.603-10.645 19.97-19.627zm-36.64-6.22c-7.407 0-18.606-16.45-18.606-41.244s11.199-41.244 18.606-41.244 18.606 16.45 18.606 41.244-11.199 41.244-18.606 41.244z"/><path d="m158.494 233.943c-10.142 0-19.678 3.95-26.849 11.122-5.858 5.858-5.858 15.355 0 21.213 5.857 5.858 15.355 5.858 21.213 0 1.506-1.505 3.507-2.334 5.636-2.334s4.13.829 5.635 2.334c2.929 2.929 6.768 4.394 10.607 4.394 3.838 0 7.678-1.465 10.606-4.393 5.858-5.858 5.858-15.355 0-21.213-7.171-7.173-16.706-11.123-26.848-11.123z"/><path d="m379.514 245.064c-7.171-7.172-16.707-11.122-26.849-11.122s-19.678 3.95-26.849 11.122c-5.858 5.858-5.858 15.355 0 21.213 5.857 5.858 15.355 5.858 21.213 0 1.506-1.505 3.507-2.334 5.636-2.334s4.13.829 5.635 2.334c2.929 2.929 6.768 4.394 10.607 4.394 3.838 0 7.678-1.465 10.606-4.393 5.858-5.858 5.859-15.356.001-21.214z"/></g></svg>