<?xml version="1.0" encoding="utf-8"?>
<!-- Generator: Adobe Illustrator 22.0.1, SVG Export Plug-In . SVG Version: 6.00 Build 0)  -->
<svg version="1.1" xmlns="http://www.w3.org/2000/svg" xmlns:xlink="http://www.w3.org/1999/xlink" x="0px" y="0px"
	 viewBox="0 0 168 81.5" style="enable-background:new 0 0 168 81.5;" xml:space="preserve">
<style type="text/css">
	.st0{fill:url(#SVGID_1_);}
</style>
<g id="Layer_1">
	<path d="M37.5,49.4c4.7,0,8.5,3.8,8.5,8.5s-3.8,8.5-8.5,8.5c-2.9,0-5.5-1.5-7-3.7c-1.5,2.2-4.1,3.7-7,3.7c-4.7,0-8.5-3.8-8.5-8.5
		s3.8-8.5,8.5-8.5c2.9,0,5.5,1.5,7,3.7C32,50.9,34.6,49.4,37.5,49.4z M93.9,81.2H11.8C5.3,81.2,0,75.9,0,69.4V12
		C0,5.5,5.3,0.2,11.8,0.2h103l0,0c-0.7,0.5-1.4,1-2.1,1.5l0,0c-0.7,0.5-1.3,1.1-1.9,1.6l0,0c-1.3,1.2-2.4,2.4-3.4,3.8l0,0H11.8
		C9.2,7.1,7,9.2,7,11.9v9.2h94.5c-0.1,0.6-0.1,1.2-0.2,1.8c0,0.1,0,0.2,0,0.2c0,0.6-0.1,1.3-0.1,1.9v2.7c-0.6,0.2-1.1,0.4-1.6,0.6
		c-0.1,0.1-0.3,0.1-0.4,0.2c-0.5,0.2-1,0.5-1.4,0.8c0,0,0,0-0.1,0c-0.5,0.3-1,0.6-1.4,1c-0.1,0.1-0.2,0.1-0.3,0.2
		c-0.4,0.3-0.9,0.7-1.3,1.1l0,0c-0.4,0.4-0.8,0.9-1.2,1.3c0,0.1-0.1,0.1-0.1,0.2c-0.8,1-1.4,2-2,3.1c0,0,0,0,0,0.1
		c-0.3,0.6-0.5,1.1-0.7,1.7l0,0H7v31.2c0,2.6,2.1,4.8,4.8,4.8h78.4C90.8,76.9,92.1,79.2,93.9,81.2z"/>
</g>
<g id="Layer_2">
	<linearGradient id="SVGID_1_" gradientUnits="userSpaceOnUse" x1="105.4508" y1="25.32" x2="158.4455" y2="75.3796">
		<stop  offset="0" style="stop-color:#F1BE18"/>
		<stop  offset="1" style="stop-color:#E4AA07"/>
	</linearGradient>
	<path class="st0" d="M156.3,31.8v-6.9c0.1-13.7-11-24.8-24.7-24.8c-13.7,0-24.8,11.1-24.8,24.8v6.9c-6.4,0-11.7,5.2-11.7,11.7v26.2
		c0,6.5,5.2,11.7,11.7,11.7h49.5c6.5,0,11.7-5.2,11.7-11.7V43.5C168,37,162.8,31.8,156.3,31.8z M136,60.7v6.8c0,2.4-2,4.4-4.4,4.4
		c-2.4,0-4.4-2-4.4-4.4v-6.8c-3.4-1.6-5.8-5.1-5.8-9.2c0-5.6,4.6-10.2,10.2-10.2c5.6,0,10.2,4.6,10.2,10.2
		C141.8,55.6,139.5,59.1,136,60.7z M118.5,31.8v-6.9c0-7.2,5.9-13.1,13.1-13.1c7.2,0,13.1,5.9,13.1,13.1v6.9H118.5z"/>
</g>
</svg>
